<svg xmlns="http://www.w3.org/2000/svg" width="560" height="420" viewBox="0 0 560 420">
<rect width="560" height="420" fill="#1B2A4A"/>
<rect x="40" y="40" width="480" height="340" fill="none" stroke="rgba(201,168,76,0.4)" stroke-width="1.5"/>
<path d="M72 0V730H225L428 140Q425 172 421.5 215.5Q418 259 416.0 304.5Q414 350 414 384V730H528V0H375L174 590Q176 561 179.0 520.0Q182 479 184.0 436.0Q186 393 186 357V0Z" transform="translate(203.6,205.0) scale(0.07600,-0.07600)" fill="#C9A84C"/>
<path d="M76 0V730H307Q380 730 433.5 703.0Q487 676 517.0 627.5Q547 579 547 513Q547 441 510.5 386.0Q474 331 412 308L557 0H417L290 290H201V0ZM201 400H307Q360 400 390.0 429.0Q420 458 420 509Q420 561 390.0 590.5Q360 620 307 620H201Z" transform="translate(257.2,205.0) scale(0.07600,-0.07600)" fill="#C9A84C"/>
<path d="M302 -10Q227 -10 172.0 15.0Q117 40 87.5 86.5Q58 133 57 196H182Q182 151 214.5 125.5Q247 100 303 100Q357 100 387.5 125.0Q418 150 418 194Q418 231 396.5 258.5Q375 286 335 296L251 319Q165 341 118.5 398.0Q72 455 72 536Q72 598 100.0 644.0Q128 690 179.5 715.0Q231 740 301 740Q407 740 469.0 685.5Q531 631 532 539H407Q407 582 379.0 606.5Q351 631 300 631Q251 631 224.0 608.0Q197 585 197 543Q197 505 217.5 478.5Q238 452 277 441L364 417Q451 395 497.0 338.5Q543 282 543 199Q543 137 513.0 89.5Q483 42 429.0 16.0Q375 -10 302 -10Z" transform="translate(310.8,205.0) scale(0.07600,-0.07600)" fill="#C9A84C"/>
<path d="M81 0V730H217L430 123Q428 152 425.0 192.0Q422 232 420.5 275.0Q419 318 419 353V730H519V0H383L171 607Q173 581 175.5 542.0Q178 503 179.5 461.0Q181 419 181 383V0Z" transform="translate(149.5,258.0) scale(0.01500,-0.01500)" fill="#F5F0E8"/>
<path d="M43 0 229 730H371L557 0H448L404 185H197L153 0ZM217 274H383L333 485Q320 541 311.5 582.5Q303 624 300 639Q297 624 289.0 582.5Q281 541 267 486Z" transform="translate(161.5,258.0) scale(0.01500,-0.01500)" fill="#F5F0E8"/>
<path d="M246 0V631H51V731H549V631H354V0Z" transform="translate(173.5,258.0) scale(0.01500,-0.01500)" fill="#F5F0E8"/>
<path d="M98 0V96H245V634H98V730H502V634H355V96H502V0Z" transform="translate(185.5,258.0) scale(0.01500,-0.01500)" fill="#F5F0E8"/>
<path d="M300 -10Q232 -10 182.5 15.5Q133 41 106.5 89.5Q80 138 80 203V527Q80 593 106.5 641.0Q133 689 182.5 714.5Q232 740 300 740Q368 740 417.5 714.5Q467 689 493.5 641.0Q520 593 520 528V203Q520 138 493.5 89.5Q467 41 417.5 15.5Q368 -10 300 -10ZM300 86Q355 86 383.5 116.5Q412 147 412 203V527Q412 584 383.5 614.0Q355 644 300 644Q246 644 217.0 614.0Q188 584 188 527V203Q188 147 217.0 116.5Q246 86 300 86Z" transform="translate(197.5,258.0) scale(0.01500,-0.01500)" fill="#F5F0E8"/>
<path d="M81 0V730H217L430 123Q428 152 425.0 192.0Q422 232 420.5 275.0Q419 318 419 353V730H519V0H383L171 607Q173 581 175.5 542.0Q178 503 179.5 461.0Q181 419 181 383V0Z" transform="translate(209.5,258.0) scale(0.01500,-0.01500)" fill="#F5F0E8"/>
<path d="M43 0 229 730H371L557 0H448L404 185H197L153 0ZM217 274H383L333 485Q320 541 311.5 582.5Q303 624 300 639Q297 624 289.0 582.5Q281 541 267 486Z" transform="translate(221.5,258.0) scale(0.01500,-0.01500)" fill="#F5F0E8"/>
<path d="M109 0V730H217V99H536V0Z" transform="translate(233.5,258.0) scale(0.01500,-0.01500)" fill="#F5F0E8"/>
<path d="M84 0V730H313Q382 730 433.0 703.5Q484 677 512.5 629.0Q541 581 541 516Q541 443 503.5 389.5Q466 336 402 314L551 0H428L295 300H192V0ZM192 395H313Q367 395 399.0 427.5Q431 460 431 514Q431 570 399.0 602.0Q367 634 313 634H192Z" transform="translate(257.5,258.0) scale(0.01500,-0.01500)" fill="#F5F0E8"/>
<path d="M94 0V730H523V634H200V427H488V332H200V96H523V0Z" transform="translate(269.5,258.0) scale(0.01500,-0.01500)" fill="#F5F0E8"/>
<path d="M304 -10Q236 -10 185.5 15.5Q135 41 107.5 89.5Q80 138 80 203V527Q80 593 107.5 641.0Q135 689 185.5 714.5Q236 740 304 740Q372 740 422.0 714.0Q472 688 499.5 640.5Q527 593 527 527H419Q419 584 389.0 614.0Q359 644 304 644Q249 644 218.5 614.0Q188 584 188 528V203Q188 147 218.5 116.5Q249 86 304 86Q359 86 389.0 116.5Q419 147 419 203H527Q527 138 499.5 90.0Q472 42 422.0 16.0Q372 -10 304 -10Z" transform="translate(281.5,258.0) scale(0.01500,-0.01500)" fill="#F5F0E8"/>
<path d="M300 -10Q232 -10 182.5 15.5Q133 41 106.5 89.5Q80 138 80 203V527Q80 593 106.5 641.0Q133 689 182.5 714.5Q232 740 300 740Q368 740 417.5 714.5Q467 689 493.5 641.0Q520 593 520 528V203Q520 138 493.5 89.5Q467 41 417.5 15.5Q368 -10 300 -10ZM300 86Q355 86 383.5 116.5Q412 147 412 203V527Q412 584 383.5 614.0Q355 644 300 644Q246 644 217.0 614.0Q188 584 188 527V203Q188 147 217.0 116.5Q246 86 300 86Z" transform="translate(293.5,258.0) scale(0.01500,-0.01500)" fill="#F5F0E8"/>
<path d="M84 0V730H313Q382 730 433.0 703.5Q484 677 512.5 629.0Q541 581 541 516Q541 443 503.5 389.5Q466 336 402 314L551 0H428L295 300H192V0ZM192 395H313Q367 395 399.0 427.5Q431 460 431 514Q431 570 399.0 602.0Q367 634 313 634H192Z" transform="translate(305.5,258.0) scale(0.01500,-0.01500)" fill="#F5F0E8"/>
<path d="M83 0V730H287Q359 730 412.0 702.5Q465 675 494.5 625.0Q524 575 524 507V224Q524 157 494.5 106.0Q465 55 412.0 27.5Q359 0 287 0ZM191 98H287Q347 98 381.5 131.5Q416 165 416 224V507Q416 565 381.5 598.5Q347 632 287 632H191Z" transform="translate(317.5,258.0) scale(0.01500,-0.01500)" fill="#F5F0E8"/>
<path d="M303 -10Q229 -10 176.0 14.5Q123 39 94.0 84.5Q65 130 65 193H172Q172 143 207.0 114.5Q242 86 304 86Q362 86 395.0 114.0Q428 142 428 191Q428 232 405.5 262.0Q383 292 341 303L249 330Q169 353 125.5 408.5Q82 464 82 541Q82 601 109.0 646.0Q136 691 186.0 716.0Q236 741 304 741Q404 741 464.5 687.0Q525 633 526 542H418Q418 590 387.5 617.5Q357 645 302 645Q249 645 219.0 619.5Q189 594 189 548Q189 507 211.5 477.0Q234 447 276 435L369 407Q449 385 492.0 329.0Q535 273 535 195Q535 134 506.0 87.5Q477 41 425.0 15.5Q373 -10 303 -10Z" transform="translate(341.5,258.0) scale(0.01500,-0.01500)" fill="#F5F0E8"/>
<path d="M246 0V269L29 730H141L270 454Q283 427 291.0 403.5Q299 380 302 367Q304 380 312.5 403.5Q321 427 333 454L459 730H571L354 269V0Z" transform="translate(353.5,258.0) scale(0.01500,-0.01500)" fill="#F5F0E8"/>
<path d="M303 -10Q229 -10 176.0 14.5Q123 39 94.0 84.5Q65 130 65 193H172Q172 143 207.0 114.5Q242 86 304 86Q362 86 395.0 114.0Q428 142 428 191Q428 232 405.5 262.0Q383 292 341 303L249 330Q169 353 125.5 408.5Q82 464 82 541Q82 601 109.0 646.0Q136 691 186.0 716.0Q236 741 304 741Q404 741 464.5 687.0Q525 633 526 542H418Q418 590 387.5 617.5Q357 645 302 645Q249 645 219.0 619.5Q189 594 189 548Q189 507 211.5 477.0Q234 447 276 435L369 407Q449 385 492.0 329.0Q535 273 535 195Q535 134 506.0 87.5Q477 41 425.0 15.5Q373 -10 303 -10Z" transform="translate(365.5,258.0) scale(0.01500,-0.01500)" fill="#F5F0E8"/>
<path d="M246 0V631H51V731H549V631H354V0Z" transform="translate(377.5,258.0) scale(0.01500,-0.01500)" fill="#F5F0E8"/>
<path d="M94 0V730H523V634H200V427H488V332H200V96H523V0Z" transform="translate(389.5,258.0) scale(0.01500,-0.01500)" fill="#F5F0E8"/>
<path d="M66 0V730H199L272 496Q283 463 291.0 432.5Q299 402 302 387Q306 402 313.5 432.5Q321 463 331 496L401 730H534V0H432V246Q432 293 434.5 350.5Q437 408 442.0 466.5Q447 525 452.0 578.5Q457 632 461 672L353 317H249L139 672Q144 633 149.0 581.5Q154 530 158.0 472.0Q162 414 165.0 355.5Q168 297 168 246V0Z" transform="translate(401.5,258.0) scale(0.01500,-0.01500)" fill="#F5F0E8"/>
<path d="M246 0V631H51V731H549V631H354V0Z" transform="translate(156.8,300.0) scale(0.01200,-0.01200)" fill="rgba(245,240,232,0.6)"/>
<path d="M85 0V730H193V428H407V730H515V0H407V328H193V0Z" transform="translate(166.0,300.0) scale(0.01200,-0.01200)" fill="rgba(245,240,232,0.6)"/>
<path d="M94 0V730H523V634H200V427H488V332H200V96H523V0Z" transform="translate(175.2,300.0) scale(0.01200,-0.01200)" fill="rgba(245,240,232,0.6)"/>
<path d="M84 0V730H323Q394 730 446.5 703.0Q499 676 527.5 626.5Q556 577 556 510Q556 444 527.0 394.0Q498 344 446.0 317.0Q394 290 323 290H192V0ZM192 387H323Q379 387 412.5 420.5Q446 454 446 510Q446 567 412.5 600.0Q379 633 323 633H192Z" transform="translate(193.6,300.0) scale(0.01200,-0.01200)" fill="rgba(245,240,232,0.6)"/>
<path d="M94 0V730H523V634H200V427H488V332H200V96H523V0Z" transform="translate(202.8,300.0) scale(0.01200,-0.01200)" fill="rgba(245,240,232,0.6)"/>
<path d="M84 0V730H313Q382 730 433.0 703.5Q484 677 512.5 629.0Q541 581 541 516Q541 443 503.5 389.5Q466 336 402 314L551 0H428L295 300H192V0ZM192 395H313Q367 395 399.0 427.5Q431 460 431 514Q431 570 399.0 602.0Q367 634 313 634H192Z" transform="translate(212.0,300.0) scale(0.01200,-0.01200)" fill="rgba(245,240,232,0.6)"/>
<path d="M66 0V730H199L272 496Q283 463 291.0 432.5Q299 402 302 387Q306 402 313.5 432.5Q321 463 331 496L401 730H534V0H432V246Q432 293 434.5 350.5Q437 408 442.0 466.5Q447 525 452.0 578.5Q457 632 461 672L353 317H249L139 672Q144 633 149.0 581.5Q154 530 158.0 472.0Q162 414 165.0 355.5Q168 297 168 246V0Z" transform="translate(221.2,300.0) scale(0.01200,-0.01200)" fill="rgba(245,240,232,0.6)"/>
<path d="M43 0 229 730H371L557 0H448L404 185H197L153 0ZM217 274H383L333 485Q320 541 311.5 582.5Q303 624 300 639Q297 624 289.0 582.5Q281 541 267 486Z" transform="translate(230.4,300.0) scale(0.01200,-0.01200)" fill="rgba(245,240,232,0.6)"/>
<path d="M81 0V730H217L430 123Q428 152 425.0 192.0Q422 232 420.5 275.0Q419 318 419 353V730H519V0H383L171 607Q173 581 175.5 542.0Q178 503 179.5 461.0Q181 419 181 383V0Z" transform="translate(239.6,300.0) scale(0.01200,-0.01200)" fill="rgba(245,240,232,0.6)"/>
<path d="M94 0V730H523V634H200V427H488V332H200V96H523V0Z" transform="translate(248.8,300.0) scale(0.01200,-0.01200)" fill="rgba(245,240,232,0.6)"/>
<path d="M81 0V730H217L430 123Q428 152 425.0 192.0Q422 232 420.5 275.0Q419 318 419 353V730H519V0H383L171 607Q173 581 175.5 542.0Q178 503 179.5 461.0Q181 419 181 383V0Z" transform="translate(258.0,300.0) scale(0.01200,-0.01200)" fill="rgba(245,240,232,0.6)"/>
<path d="M246 0V631H51V731H549V631H354V0Z" transform="translate(267.2,300.0) scale(0.01200,-0.01200)" fill="rgba(245,240,232,0.6)"/>
<path d="M84 0V730H323Q394 730 446.5 703.0Q499 676 527.5 626.5Q556 577 556 510Q556 444 527.0 394.0Q498 344 446.0 317.0Q394 290 323 290H192V0ZM192 387H323Q379 387 412.5 420.5Q446 454 446 510Q446 567 412.5 600.0Q379 633 323 633H192Z" transform="translate(285.6,300.0) scale(0.01200,-0.01200)" fill="rgba(245,240,232,0.6)"/>
<path d="M300 -10Q195 -10 138.0 47.5Q81 105 81 204V730H189V204Q189 149 216.5 117.0Q244 85 300 85Q355 85 383.0 117.0Q411 149 411 204V730H519V204Q519 105 462.0 47.5Q405 -10 300 -10Z" transform="translate(294.8,300.0) scale(0.01200,-0.01200)" fill="rgba(245,240,232,0.6)"/>
<path d="M85 0V730H300Q404 730 463.0 680.0Q522 630 522 542Q522 492 500.5 455.5Q479 419 441.0 399.0Q403 379 352 379V389Q407 390 449.0 368.5Q491 347 515.0 305.0Q539 263 539 205Q539 143 511.5 96.5Q484 50 433.5 25.0Q383 0 314 0ZM190 93H305Q363 93 397.0 124.0Q431 155 431 210Q431 266 397.0 300.0Q363 334 305 334H190ZM190 424H299Q353 424 384.0 453.0Q415 482 415 531Q415 580 384.0 608.5Q353 637 300 637H190Z" transform="translate(304.0,300.0) scale(0.01200,-0.01200)" fill="rgba(245,240,232,0.6)"/>
<path d="M109 0V730H217V99H536V0Z" transform="translate(313.2,300.0) scale(0.01200,-0.01200)" fill="rgba(245,240,232,0.6)"/>
<path d="M98 0V96H245V634H98V730H502V634H355V96H502V0Z" transform="translate(322.4,300.0) scale(0.01200,-0.01200)" fill="rgba(245,240,232,0.6)"/>
<path d="M304 -10Q236 -10 185.5 15.5Q135 41 107.5 89.5Q80 138 80 203V527Q80 593 107.5 641.0Q135 689 185.5 714.5Q236 740 304 740Q372 740 422.0 714.0Q472 688 499.5 640.5Q527 593 527 527H419Q419 584 389.0 614.0Q359 644 304 644Q249 644 218.5 614.0Q188 584 188 528V203Q188 147 218.5 116.5Q249 86 304 86Q359 86 389.0 116.5Q419 147 419 203H527Q527 138 499.5 90.0Q472 42 422.0 16.0Q372 -10 304 -10Z" transform="translate(331.6,300.0) scale(0.01200,-0.01200)" fill="rgba(245,240,232,0.6)"/>
<path d="M84 0V730H313Q382 730 433.0 703.5Q484 677 512.5 629.0Q541 581 541 516Q541 443 503.5 389.5Q466 336 402 314L551 0H428L295 300H192V0ZM192 395H313Q367 395 399.0 427.5Q431 460 431 514Q431 570 399.0 602.0Q367 634 313 634H192Z" transform="translate(350.0,300.0) scale(0.01200,-0.01200)" fill="rgba(245,240,232,0.6)"/>
<path d="M94 0V730H523V634H200V427H488V332H200V96H523V0Z" transform="translate(359.2,300.0) scale(0.01200,-0.01200)" fill="rgba(245,240,232,0.6)"/>
<path d="M304 -10Q236 -10 185.5 15.5Q135 41 107.5 89.5Q80 138 80 203V527Q80 593 107.5 641.0Q135 689 185.5 714.5Q236 740 304 740Q372 740 422.0 714.0Q472 688 499.5 640.5Q527 593 527 527H419Q419 584 389.0 614.0Q359 644 304 644Q249 644 218.5 614.0Q188 584 188 528V203Q188 147 218.5 116.5Q249 86 304 86Q359 86 389.0 116.5Q419 147 419 203H527Q527 138 499.5 90.0Q472 42 422.0 16.0Q372 -10 304 -10Z" transform="translate(368.4,300.0) scale(0.01200,-0.01200)" fill="rgba(245,240,232,0.6)"/>
<path d="M300 -10Q232 -10 182.5 15.5Q133 41 106.5 89.5Q80 138 80 203V527Q80 593 106.5 641.0Q133 689 182.5 714.5Q232 740 300 740Q368 740 417.5 714.5Q467 689 493.5 641.0Q520 593 520 528V203Q520 138 493.5 89.5Q467 41 417.5 15.5Q368 -10 300 -10ZM300 86Q355 86 383.5 116.5Q412 147 412 203V527Q412 584 383.5 614.0Q355 644 300 644Q246 644 217.0 614.0Q188 584 188 527V203Q188 147 217.0 116.5Q246 86 300 86Z" transform="translate(377.6,300.0) scale(0.01200,-0.01200)" fill="rgba(245,240,232,0.6)"/>
<path d="M84 0V730H313Q382 730 433.0 703.5Q484 677 512.5 629.0Q541 581 541 516Q541 443 503.5 389.5Q466 336 402 314L551 0H428L295 300H192V0ZM192 395H313Q367 395 399.0 427.5Q431 460 431 514Q431 570 399.0 602.0Q367 634 313 634H192Z" transform="translate(386.8,300.0) scale(0.01200,-0.01200)" fill="rgba(245,240,232,0.6)"/>
<path d="M83 0V730H287Q359 730 412.0 702.5Q465 675 494.5 625.0Q524 575 524 507V224Q524 157 494.5 106.0Q465 55 412.0 27.5Q359 0 287 0ZM191 98H287Q347 98 381.5 131.5Q416 165 416 224V507Q416 565 381.5 598.5Q347 632 287 632H191Z" transform="translate(396.0,300.0) scale(0.01200,-0.01200)" fill="rgba(245,240,232,0.6)"/>
</svg>