<svg xmlns="http://www.w3.org/2000/svg" width="560" height="420" viewBox="0 0 560 420">
<rect width="560" height="420" fill="#0f1e38"/>
<rect x="0" y="392" width="560" height="28" fill="#b91c1c"/>
<path d="M76 0V730H307Q380 730 433.5 703.0Q487 676 517.0 627.5Q547 579 547 513Q547 441 510.5 386.0Q474 331 412 308L557 0H417L290 290H201V0ZM201 400H307Q360 400 390.0 429.0Q420 458 420 509Q420 561 390.0 590.5Q360 620 307 620H201Z" transform="translate(194.8,215.0) scale(0.08800,-0.08800)" fill="#F5F0E8"/>
<path d="M72 0V730H225L428 140Q425 172 421.5 215.5Q418 259 416.0 304.5Q414 350 414 384V730H528V0H375L174 590Q176 561 179.0 520.0Q182 479 184.0 436.0Q186 393 186 357V0Z" transform="translate(253.6,215.0) scale(0.08800,-0.08800)" fill="#F5F0E8"/>
<path d="M72 0V730H225L428 140Q425 172 421.5 215.5Q418 259 416.0 304.5Q414 350 414 384V730H528V0H375L174 590Q176 561 179.0 520.0Q182 479 184.0 436.0Q186 393 186 357V0Z" transform="translate(312.4,215.0) scale(0.08800,-0.08800)" fill="#F5F0E8"/>
<path d="M84 0V730H313Q382 730 433.0 703.5Q484 677 512.5 629.0Q541 581 541 516Q541 443 503.5 389.5Q466 336 402 314L551 0H428L295 300H192V0ZM192 395H313Q367 395 399.0 427.5Q431 460 431 514Q431 570 399.0 602.0Q367 634 313 634H192Z" transform="translate(155.5,275.0) scale(0.01500,-0.01500)" fill="rgba(245,240,232,0.75)"/>
<path d="M94 0V730H523V634H200V427H488V332H200V96H523V0Z" transform="translate(167.5,275.0) scale(0.01500,-0.01500)" fill="rgba(245,240,232,0.75)"/>
<path d="M84 0V730H323Q394 730 446.5 703.0Q499 676 527.5 626.5Q556 577 556 510Q556 444 527.0 394.0Q498 344 446.0 317.0Q394 290 323 290H192V0ZM192 387H323Q379 387 412.5 420.5Q446 454 446 510Q446 567 412.5 600.0Q379 633 323 633H192Z" transform="translate(179.5,275.0) scale(0.01500,-0.01500)" fill="rgba(245,240,232,0.75)"/>
<path d="M300 -10Q195 -10 138.0 47.5Q81 105 81 204V730H189V204Q189 149 216.5 117.0Q244 85 300 85Q355 85 383.0 117.0Q411 149 411 204V730H519V204Q519 105 462.0 47.5Q405 -10 300 -10Z" transform="translate(191.5,275.0) scale(0.01500,-0.01500)" fill="rgba(245,240,232,0.75)"/>
<path d="M85 0V730H300Q404 730 463.0 680.0Q522 630 522 542Q522 492 500.5 455.5Q479 419 441.0 399.0Q403 379 352 379V389Q407 390 449.0 368.5Q491 347 515.0 305.0Q539 263 539 205Q539 143 511.5 96.5Q484 50 433.5 25.0Q383 0 314 0ZM190 93H305Q363 93 397.0 124.0Q431 155 431 210Q431 266 397.0 300.0Q363 334 305 334H190ZM190 424H299Q353 424 384.0 453.0Q415 482 415 531Q415 580 384.0 608.5Q353 637 300 637H190Z" transform="translate(203.5,275.0) scale(0.01500,-0.01500)" fill="rgba(245,240,232,0.75)"/>
<path d="M109 0V730H217V99H536V0Z" transform="translate(215.5,275.0) scale(0.01500,-0.01500)" fill="rgba(245,240,232,0.75)"/>
<path d="M98 0V96H245V634H98V730H502V634H355V96H502V0Z" transform="translate(227.5,275.0) scale(0.01500,-0.01500)" fill="rgba(245,240,232,0.75)"/>
<path d="M304 -10Q236 -10 185.5 15.5Q135 41 107.5 89.5Q80 138 80 203V527Q80 593 107.5 641.0Q135 689 185.5 714.5Q236 740 304 740Q372 740 422.0 714.0Q472 688 499.5 640.5Q527 593 527 527H419Q419 584 389.0 614.0Q359 644 304 644Q249 644 218.5 614.0Q188 584 188 528V203Q188 147 218.5 116.5Q249 86 304 86Q359 86 389.0 116.5Q419 147 419 203H527Q527 138 499.5 90.0Q472 42 422.0 16.0Q372 -10 304 -10Z" transform="translate(239.5,275.0) scale(0.01500,-0.01500)" fill="rgba(245,240,232,0.75)"/>
<path d="M81 0V730H217L430 123Q428 152 425.0 192.0Q422 232 420.5 275.0Q419 318 419 353V730H519V0H383L171 607Q173 581 175.5 542.0Q178 503 179.5 461.0Q181 419 181 383V0Z" transform="translate(263.5,275.0) scale(0.01500,-0.01500)" fill="rgba(245,240,232,0.75)"/>
<path d="M94 0V730H523V634H200V427H488V332H200V96H523V0Z" transform="translate(275.5,275.0) scale(0.01500,-0.01500)" fill="rgba(245,240,232,0.75)"/>
<path d="M100 0 21 730H118L167 206Q169 186 170.5 162.0Q172 138 173.5 115.0Q175 92 175 75Q177 92 179.0 115.0Q181 138 183.5 162.0Q186 186 189 206L252 730H352L411 206Q413 186 415.5 162.0Q418 138 421.0 115.0Q424 92 425 75Q426 92 427.5 115.0Q429 138 431.0 162.0Q433 186 435 206L485 730H579L497 0H372L313 531Q311 552 309.0 575.5Q307 599 305.0 621.5Q303 644 301 659Q300 644 298.0 621.5Q296 599 294.0 575.5Q292 552 289 531L226 0Z" transform="translate(287.5,275.0) scale(0.01500,-0.01500)" fill="rgba(245,240,232,0.75)"/>
<path d="M303 -10Q229 -10 176.0 14.5Q123 39 94.0 84.5Q65 130 65 193H172Q172 143 207.0 114.5Q242 86 304 86Q362 86 395.0 114.0Q428 142 428 191Q428 232 405.5 262.0Q383 292 341 303L249 330Q169 353 125.5 408.5Q82 464 82 541Q82 601 109.0 646.0Q136 691 186.0 716.0Q236 741 304 741Q404 741 464.5 687.0Q525 633 526 542H418Q418 590 387.5 617.5Q357 645 302 645Q249 645 219.0 619.5Q189 594 189 548Q189 507 211.5 477.0Q234 447 276 435L369 407Q449 385 492.0 329.0Q535 273 535 195Q535 134 506.0 87.5Q477 41 425.0 15.5Q373 -10 303 -10Z" transform="translate(299.5,275.0) scale(0.01500,-0.01500)" fill="rgba(245,240,232,0.75)"/>
<path d="M81 0V730H217L430 123Q428 152 425.0 192.0Q422 232 420.5 275.0Q419 318 419 353V730H519V0H383L171 607Q173 581 175.5 542.0Q178 503 179.5 461.0Q181 419 181 383V0Z" transform="translate(323.5,275.0) scale(0.01500,-0.01500)" fill="rgba(245,240,232,0.75)"/>
<path d="M94 0V730H523V634H200V427H488V332H200V96H523V0Z" transform="translate(335.5,275.0) scale(0.01500,-0.01500)" fill="rgba(245,240,232,0.75)"/>
<path d="M246 0V631H51V731H549V631H354V0Z" transform="translate(347.5,275.0) scale(0.01500,-0.01500)" fill="rgba(245,240,232,0.75)"/>
<path d="M100 0 21 730H118L167 206Q169 186 170.5 162.0Q172 138 173.5 115.0Q175 92 175 75Q177 92 179.0 115.0Q181 138 183.5 162.0Q186 186 189 206L252 730H352L411 206Q413 186 415.5 162.0Q418 138 421.0 115.0Q424 92 425 75Q426 92 427.5 115.0Q429 138 431.0 162.0Q433 186 435 206L485 730H579L497 0H372L313 531Q311 552 309.0 575.5Q307 599 305.0 621.5Q303 644 301 659Q300 644 298.0 621.5Q296 599 294.0 575.5Q292 552 289 531L226 0Z" transform="translate(359.5,275.0) scale(0.01500,-0.01500)" fill="rgba(245,240,232,0.75)"/>
<path d="M300 -10Q232 -10 182.5 15.5Q133 41 106.5 89.5Q80 138 80 203V527Q80 593 106.5 641.0Q133 689 182.5 714.5Q232 740 300 740Q368 740 417.5 714.5Q467 689 493.5 641.0Q520 593 520 528V203Q520 138 493.5 89.5Q467 41 417.5 15.5Q368 -10 300 -10ZM300 86Q355 86 383.5 116.5Q412 147 412 203V527Q412 584 383.5 614.0Q355 644 300 644Q246 644 217.0 614.0Q188 584 188 527V203Q188 147 217.0 116.5Q246 86 300 86Z" transform="translate(371.5,275.0) scale(0.01500,-0.01500)" fill="rgba(245,240,232,0.75)"/>
<path d="M84 0V730H313Q382 730 433.0 703.5Q484 677 512.5 629.0Q541 581 541 516Q541 443 503.5 389.5Q466 336 402 314L551 0H428L295 300H192V0ZM192 395H313Q367 395 399.0 427.5Q431 460 431 514Q431 570 399.0 602.0Q367 634 313 634H192Z" transform="translate(383.5,275.0) scale(0.01500,-0.01500)" fill="rgba(245,240,232,0.75)"/>
<path d="M84 0V730H192V426H289L438 730H556L384 380L564 0H443L287 329H192V0Z" transform="translate(395.5,275.0) scale(0.01500,-0.01500)" fill="rgba(245,240,232,0.75)"/>
</svg>