<svg xmlns="http://www.w3.org/2000/svg" width="560" height="420" viewBox="0 0 560 420">
<rect width="560" height="420" fill="#1B2A4A"/>
<rect x="40" y="40" width="480" height="340" fill="none" stroke="rgba(201,168,76,0.4)" stroke-width="1.5"/><line x1="180" y1="265" x2="380" y2="265" stroke="#C9A84C" stroke-width="1.5"/>
<path d="M174 524Q174 486 193.5 457.5Q213 429 244.5 406.0Q276 383 311 360Q349 336 383.5 309.5Q418 283 440.5 248.5Q463 214 463 166Q463 113 434.5 73.0Q406 33 357.5 10.5Q309 -12 247 -12Q217 -12 184.5 -6.0Q152 0 125.5 9.0Q99 18 87 28Q83 31 80.0 34.5Q77 38 77 47L74 206Q73 211 78.5 211.5Q84 212 85 208Q100 177 118.0 142.5Q136 108 158.5 79.0Q181 50 209.0 31.5Q237 13 273 13Q296 13 317.0 21.0Q338 29 351.5 50.0Q365 71 365 108Q365 155 344.0 188.5Q323 222 290.0 247.5Q257 273 221 296Q186 319 154.0 343.5Q122 368 102.0 399.5Q82 431 82 475Q82 531 113.5 566.5Q145 602 193.5 619.0Q242 636 292 636Q328 636 364.0 629.5Q400 623 421 614Q431 610 433.5 605.0Q436 600 436 594V447Q436 444 431.5 442.5Q427 441 425 444Q419 456 408.0 483.5Q397 511 379.0 541.0Q361 571 333.0 592.5Q305 614 265 614Q240 614 219.5 604.0Q199 594 186.5 574.5Q174 555 174 524Z" transform="translate(175.0,180.0) scale(0.04200,-0.04200)" fill="#F5F0E8"/>
<path d="M571 497Q571 550 546.5 581.5Q522 613 478 613Q476 613 476.0 619.0Q476 625 478 625Q503 625 529.5 623.5Q556 622 587 622Q614 622 640.0 623.5Q666 625 688 625Q690 625 690.0 619.0Q690 613 688 613Q648 613 626.5 581.5Q605 550 605 497V219Q605 148 574.0 95.5Q543 43 487.0 14.5Q431 -14 356 -14Q283 -14 225.5 14.0Q168 42 135.5 94.5Q103 147 103 221V544Q103 573 98.0 587.5Q93 602 77.5 607.5Q62 613 32 613Q29 613 29.0 619.0Q29 625 32 625Q58 625 90.0 623.5Q122 622 158 622Q196 622 228.0 623.5Q260 625 285 625Q288 625 288.0 619.0Q288 613 285 613Q255 613 240.0 607.0Q225 601 219.5 586.0Q214 571 214 542V256Q214 133 263.0 78.0Q312 23 394 23Q477 23 524.0 73.5Q571 124 571 218Z" transform="translate(200.6,180.0) scale(0.04200,-0.04200)" fill="#F5F0E8"/>
<path d="M216 85Q216 55 222.5 39.5Q229 24 250.0 18.0Q271 12 312 12Q315 12 315.0 6.0Q315 0 312 0Q280 0 242.5 1.0Q205 2 161 2Q125 2 92.5 1.0Q60 0 34 0Q31 0 31.0 6.0Q31 12 34 12Q65 12 80.0 17.0Q95 22 100.0 37.0Q105 52 105 81V544Q105 573 100.0 587.5Q95 602 80.0 607.5Q65 613 34 613Q31 613 31.0 619.0Q31 625 34 625Q60 625 92.0 623.5Q124 622 160 622Q184 622 223.0 625.0Q262 628 296 628Q359 628 407.5 611.5Q456 595 485.0 559.0Q514 523 516 464Q518 413 499.5 375.0Q481 337 448.5 312.0Q416 287 376.5 274.5Q337 262 298 262Q288 262 275.5 263.0Q263 264 251 267Q248 268 249.0 274.5Q250 281 254 280Q262 278 272.0 277.0Q282 276 288 276Q317 276 341.0 294.0Q365 312 380.0 349.0Q395 386 395 441Q395 494 380.0 530.5Q365 567 336.0 586.5Q307 606 264 606Q246 606 235.5 601.0Q225 596 220.5 582.0Q216 568 216 542Z" transform="translate(234.1,180.0) scale(0.04200,-0.04200)" fill="#F5F0E8"/>
<path d="M530 0Q515 0 481.5 37.5Q448 75 401.0 146.0Q354 217 295 316L387 344Q467 223 523.5 150.0Q580 77 624.0 44.5Q668 12 708 12Q710 12 710.0 6.0Q710 0 708 0Q638 0 594.0 0.0Q550 0 530 0ZM315 628Q407 628 456.5 594.5Q506 561 506 501Q506 442 473.0 396.5Q440 351 388.5 326.0Q337 301 280 301Q266 301 251.5 301.0Q237 301 225 302V81Q225 52 230.0 37.0Q235 22 250.0 17.0Q265 12 296 12Q298 12 298.0 6.0Q298 0 296 0Q270 0 238.0 1.0Q206 2 168 2Q132 2 99.5 1.0Q67 0 41 0Q38 0 38.0 6.0Q38 12 41 12Q72 12 87.0 17.0Q102 22 107.5 37.0Q113 52 113 81V544Q113 573 108.0 587.5Q103 602 88.0 607.5Q73 613 42 613Q40 613 40.0 619.0Q40 625 42 625Q68 625 100.0 623.5Q132 622 168 622Q201 622 240.5 625.0Q280 628 315 628ZM392 463Q392 522 380.0 553.0Q368 584 347.0 595.5Q326 607 299 607Q259 607 242.0 592.0Q225 577 225 542V330Q239 328 255.0 327.0Q271 326 283 326Q342 326 367.0 358.5Q392 391 392 463Z" transform="translate(261.4,180.0) scale(0.04200,-0.04200)" fill="#F5F0E8"/>
<path d="M483 0H41Q38 0 38.0 6.0Q38 12 41 12Q72 12 87.0 17.0Q102 22 107.0 37.0Q112 52 112 81V544Q112 573 107.0 587.5Q102 602 87.0 607.5Q72 613 41 613Q38 613 38.0 619.0Q38 625 41 625H465Q475 625 475 616L477 483Q477 481 472.0 480.0Q467 479 465 482Q449 541 411.0 568.5Q373 596 311 596H281Q261 596 248.0 590.5Q235 585 229.0 573.0Q223 561 223 543V85Q223 66 228.0 53.0Q233 40 243.0 34.0Q253 28 269 28H302Q380 28 427.0 60.0Q474 92 496 159Q497 162 502.5 160.5Q508 159 508 157Q504 128 501.0 88.5Q498 49 498 15Q498 0 483 0ZM427 223Q427 264 396.0 287.5Q365 311 305 311H170V339H306Q365 339 395.5 359.5Q426 380 426 415Q426 418 431.5 418.0Q437 418 437 415Q437 382 436.5 363.5Q436 345 436 325Q436 300 437.5 276.0Q439 252 439 223Q439 221 433.0 221.0Q427 221 427 223Z" transform="translate(294.7,180.0) scale(0.04200,-0.04200)" fill="#F5F0E8"/>
<path d="M117 127 127 602 156 600 145 127Q144 74 166.5 43.0Q189 12 230 12Q233 12 233.0 6.0Q233 0 230 0Q208 0 185.0 1.0Q162 2 133 2Q101 2 75.0 1.0Q49 0 27 0Q24 0 24.0 6.0Q24 12 27 12Q68 12 92.0 43.0Q116 74 117 127ZM833 12Q835 12 835.0 6.0Q835 0 833 0Q807 0 774.0 1.0Q741 2 705 2Q668 2 636.0 1.0Q604 0 578 0Q575 0 575.0 6.0Q575 12 578 12Q625 12 638.5 25.0Q652 38 649 81L626 525L677 605L422 7Q421 3 414.5 3.0Q408 3 406 7L125 542Q87 613 34 613Q31 613 31.0 619.0Q31 625 34 625Q55 625 78.0 624.0Q101 623 117 623Q143 623 162.5 624.0Q182 625 193 625Q207 625 214.5 615.0Q222 605 239 573L463 153L413 63L647 600Q653 614 659.5 619.5Q666 625 677 625Q687 625 698.0 624.0Q709 623 724 623Q756 623 778.5 624.0Q801 625 823 625Q826 625 826.0 619.0Q826 613 823 613Q777 613 755.5 594.0Q734 575 736 535L760 81Q762 52 767.5 37.0Q773 22 788.0 17.0Q803 12 833 12Z" transform="translate(321.9,180.0) scale(0.04200,-0.04200)" fill="#F5F0E8"/>
<path d="M483 0H41Q38 0 38.0 6.0Q38 12 41 12Q72 12 87.0 17.0Q102 22 107.0 37.0Q112 52 112 81V544Q112 573 107.0 587.5Q102 602 87.0 607.5Q72 613 41 613Q38 613 38.0 619.0Q38 625 41 625H465Q475 625 475 616L477 483Q477 481 472.0 480.0Q467 479 465 482Q449 541 411.0 568.5Q373 596 311 596H281Q261 596 248.0 590.5Q235 585 229.0 573.0Q223 561 223 543V85Q223 66 228.0 53.0Q233 40 243.0 34.0Q253 28 269 28H302Q380 28 427.0 60.0Q474 92 496 159Q497 162 502.5 160.5Q508 159 508 157Q504 128 501.0 88.5Q498 49 498 15Q498 0 483 0ZM427 223Q427 264 396.0 287.5Q365 311 305 311H170V339H306Q365 339 395.5 359.5Q426 380 426 415Q426 418 431.5 418.0Q437 418 437 415Q437 382 436.5 363.5Q436 345 436 325Q436 300 437.5 276.0Q439 252 439 223Q439 221 433.0 221.0Q427 221 427 223Z" transform="translate(361.8,180.0) scale(0.04200,-0.04200)" fill="#F5F0E8"/>
<path d="M427 636Q457 636 489.5 633.0Q522 630 551.0 624.0Q580 618 600 609Q609 606 611.5 601.5Q614 597 615 586L628 447Q628 444 623.0 443.0Q618 442 616 446Q588 527 536.5 571.0Q485 615 411 615Q343 615 289.5 578.5Q236 542 205.5 475.0Q175 408 175 315Q175 245 193.0 188.5Q211 132 244.0 92.0Q277 52 322.0 30.5Q367 9 421 9Q492 9 538.5 47.5Q585 86 626 170Q628 173 632.5 172.0Q637 171 637 168L622 44Q621 32 618.5 28.5Q616 25 607 21Q559 4 511.5 -4.0Q464 -12 421 -12Q313 -12 229.0 28.5Q145 69 97.0 141.5Q49 214 49 308Q49 380 77.5 440.5Q106 501 157.5 544.5Q209 588 278.0 612.0Q347 636 427 636Z" transform="translate(190.7,232.0) scale(0.04200,-0.04200)" fill="#F5F0E8"/>
<path d="M366 -12Q294 -12 235.5 13.5Q177 39 135.5 84.0Q94 129 71.5 187.5Q49 246 49 312Q49 393 80.5 454.0Q112 515 164.0 555.5Q216 596 278.0 616.0Q340 636 401 636Q475 636 533.5 609.5Q592 583 633.0 538.0Q674 493 695.5 436.0Q717 379 717 319Q717 249 689.0 189.0Q661 129 612.5 84.0Q564 39 500.5 13.5Q437 -12 366 -12ZM399 13Q455 13 499.0 45.0Q543 77 568.5 139.0Q594 201 594 290Q594 382 566.0 454.0Q538 526 486.0 567.5Q434 609 361 609Q270 609 221.0 540.0Q172 471 172 349Q172 276 189.0 214.5Q206 153 236.5 107.5Q267 62 308.5 37.5Q350 13 399 13Z" transform="translate(227.3,232.0) scale(0.04200,-0.04200)" fill="#F5F0E8"/>
<path d="M571 497Q571 550 546.5 581.5Q522 613 478 613Q476 613 476.0 619.0Q476 625 478 625Q503 625 529.5 623.5Q556 622 587 622Q614 622 640.0 623.5Q666 625 688 625Q690 625 690.0 619.0Q690 613 688 613Q648 613 626.5 581.5Q605 550 605 497V219Q605 148 574.0 95.5Q543 43 487.0 14.5Q431 -14 356 -14Q283 -14 225.5 14.0Q168 42 135.5 94.5Q103 147 103 221V544Q103 573 98.0 587.5Q93 602 77.5 607.5Q62 613 32 613Q29 613 29.0 619.0Q29 625 32 625Q58 625 90.0 623.5Q122 622 158 622Q196 622 228.0 623.5Q260 625 285 625Q288 625 288.0 619.0Q288 613 285 613Q255 613 240.0 607.0Q225 601 219.5 586.0Q214 571 214 542V256Q214 133 263.0 78.0Q312 23 394 23Q477 23 524.0 73.5Q571 124 571 218Z" transform="translate(267.5,232.0) scale(0.04200,-0.04200)" fill="#F5F0E8"/>
<path d="M530 0Q515 0 481.5 37.5Q448 75 401.0 146.0Q354 217 295 316L387 344Q467 223 523.5 150.0Q580 77 624.0 44.5Q668 12 708 12Q710 12 710.0 6.0Q710 0 708 0Q638 0 594.0 0.0Q550 0 530 0ZM315 628Q407 628 456.5 594.5Q506 561 506 501Q506 442 473.0 396.5Q440 351 388.5 326.0Q337 301 280 301Q266 301 251.5 301.0Q237 301 225 302V81Q225 52 230.0 37.0Q235 22 250.0 17.0Q265 12 296 12Q298 12 298.0 6.0Q298 0 296 0Q270 0 238.0 1.0Q206 2 168 2Q132 2 99.5 1.0Q67 0 41 0Q38 0 38.0 6.0Q38 12 41 12Q72 12 87.0 17.0Q102 22 107.5 37.0Q113 52 113 81V544Q113 573 108.0 587.5Q103 602 88.0 607.5Q73 613 42 613Q40 613 40.0 619.0Q40 625 42 625Q68 625 100.0 623.5Q132 622 168 622Q201 622 240.5 625.0Q280 628 315 628ZM392 463Q392 522 380.0 553.0Q368 584 347.0 595.5Q326 607 299 607Q259 607 242.0 592.0Q225 577 225 542V330Q239 328 255.0 327.0Q271 326 283 326Q342 326 367.0 358.5Q392 391 392 463Z" transform="translate(305.0,232.0) scale(0.04200,-0.04200)" fill="#F5F0E8"/>
<path d="M222 602Q161 602 118.5 561.5Q76 521 51 447Q50 444 45.0 444.5Q40 445 40 448Q42 462 44.0 487.5Q46 513 48.5 543.0Q51 573 52.5 601.0Q54 629 54 647Q54 652 59.5 652.0Q65 652 65 647Q65 637 75.5 632.5Q86 628 99.5 626.5Q113 625 122 625Q208 622 323 622Q393 622 435.0 623.5Q477 625 516 625Q552 625 570.5 629.5Q589 634 594 650Q595 654 600.5 654.0Q606 654 606 650Q604 634 602.5 605.5Q601 577 599.5 545.5Q598 514 597.0 487.5Q596 461 596 448Q596 445 591.0 445.0Q586 445 585 448Q570 527 528.5 564.5Q487 602 428 602Q408 602 397.5 596.5Q387 591 383.5 578.0Q380 565 380 542V81Q380 52 386.0 37.0Q392 22 409.5 17.0Q427 12 463 12Q466 12 466.0 6.0Q466 0 463 0Q435 0 400.0 1.0Q365 2 323 2Q283 2 248.0 1.0Q213 0 184 0Q181 0 181.0 6.0Q181 12 184 12Q219 12 237.0 17.0Q255 22 261.5 37.0Q268 52 268 81V544Q268 566 264.5 578.5Q261 591 251.0 596.5Q241 602 222 602Z" transform="translate(342.3,232.0) scale(0.04200,-0.04200)" fill="#F5F0E8"/>
<path d="M300 -10Q232 -10 182.5 15.5Q133 41 106.5 89.5Q80 138 80 203V527Q80 593 106.5 641.0Q133 689 182.5 714.5Q232 740 300 740Q368 740 417.5 714.5Q467 689 493.5 641.0Q520 593 520 528V203Q520 138 493.5 89.5Q467 41 417.5 15.5Q368 -10 300 -10ZM300 86Q355 86 383.5 116.5Q412 147 412 203V527Q412 584 383.5 614.0Q355 644 300 644Q246 644 217.0 614.0Q188 584 188 527V203Q188 147 217.0 116.5Q246 86 300 86Z" transform="translate(146.5,302.0) scale(0.01300,-0.01300)" fill="rgba(245,240,232,0.7)"/>
<path d="M88 0V731H529V631H193V413H503V313H195V0Z" transform="translate(157.3,302.0) scale(0.01300,-0.01300)" fill="rgba(245,240,232,0.7)"/>
<path d="M246 0V631H51V731H549V631H354V0Z" transform="translate(178.9,302.0) scale(0.01300,-0.01300)" fill="rgba(245,240,232,0.7)"/>
<path d="M85 0V730H193V428H407V730H515V0H407V328H193V0Z" transform="translate(189.7,302.0) scale(0.01300,-0.01300)" fill="rgba(245,240,232,0.7)"/>
<path d="M94 0V730H523V634H200V427H488V332H200V96H523V0Z" transform="translate(200.5,302.0) scale(0.01300,-0.01300)" fill="rgba(245,240,232,0.7)"/>
<path d="M88 0V731H529V631H193V413H503V313H195V0Z" transform="translate(222.1,302.0) scale(0.01300,-0.01300)" fill="rgba(245,240,232,0.7)"/>
<path d="M94 0V730H523V634H200V427H488V332H200V96H523V0Z" transform="translate(232.9,302.0) scale(0.01300,-0.01300)" fill="rgba(245,240,232,0.7)"/>
<path d="M83 0V730H287Q359 730 412.0 702.5Q465 675 494.5 625.0Q524 575 524 507V224Q524 157 494.5 106.0Q465 55 412.0 27.5Q359 0 287 0ZM191 98H287Q347 98 381.5 131.5Q416 165 416 224V507Q416 565 381.5 598.5Q347 632 287 632H191Z" transform="translate(243.7,302.0) scale(0.01300,-0.01300)" fill="rgba(245,240,232,0.7)"/>
<path d="M94 0V730H523V634H200V427H488V332H200V96H523V0Z" transform="translate(254.5,302.0) scale(0.01300,-0.01300)" fill="rgba(245,240,232,0.7)"/>
<path d="M84 0V730H313Q382 730 433.0 703.5Q484 677 512.5 629.0Q541 581 541 516Q541 443 503.5 389.5Q466 336 402 314L551 0H428L295 300H192V0ZM192 395H313Q367 395 399.0 427.5Q431 460 431 514Q431 570 399.0 602.0Q367 634 313 634H192Z" transform="translate(265.3,302.0) scale(0.01300,-0.01300)" fill="rgba(245,240,232,0.7)"/>
<path d="M43 0 229 730H371L557 0H448L404 185H197L153 0ZM217 274H383L333 485Q320 541 311.5 582.5Q303 624 300 639Q297 624 289.0 582.5Q281 541 267 486Z" transform="translate(276.1,302.0) scale(0.01300,-0.01300)" fill="rgba(245,240,232,0.7)"/>
<path d="M246 0V631H51V731H549V631H354V0Z" transform="translate(286.9,302.0) scale(0.01300,-0.01300)" fill="rgba(245,240,232,0.7)"/>
<path d="M94 0V730H523V634H200V427H488V332H200V96H523V0Z" transform="translate(297.7,302.0) scale(0.01300,-0.01300)" fill="rgba(245,240,232,0.7)"/>
<path d="M83 0V730H287Q359 730 412.0 702.5Q465 675 494.5 625.0Q524 575 524 507V224Q524 157 494.5 106.0Q465 55 412.0 27.5Q359 0 287 0ZM191 98H287Q347 98 381.5 131.5Q416 165 416 224V507Q416 565 381.5 598.5Q347 632 287 632H191Z" transform="translate(308.5,302.0) scale(0.01300,-0.01300)" fill="rgba(245,240,232,0.7)"/>
<path d="M84 0V730H313Q382 730 433.0 703.5Q484 677 512.5 629.0Q541 581 541 516Q541 443 503.5 389.5Q466 336 402 314L551 0H428L295 300H192V0ZM192 395H313Q367 395 399.0 427.5Q431 460 431 514Q431 570 399.0 602.0Q367 634 313 634H192Z" transform="translate(330.1,302.0) scale(0.01300,-0.01300)" fill="rgba(245,240,232,0.7)"/>
<path d="M94 0V730H523V634H200V427H488V332H200V96H523V0Z" transform="translate(340.9,302.0) scale(0.01300,-0.01300)" fill="rgba(245,240,232,0.7)"/>
<path d="M84 0V730H323Q394 730 446.5 703.0Q499 676 527.5 626.5Q556 577 556 510Q556 444 527.0 394.0Q498 344 446.0 317.0Q394 290 323 290H192V0ZM192 387H323Q379 387 412.5 420.5Q446 454 446 510Q446 567 412.5 600.0Q379 633 323 633H192Z" transform="translate(351.7,302.0) scale(0.01300,-0.01300)" fill="rgba(245,240,232,0.7)"/>
<path d="M300 -10Q195 -10 138.0 47.5Q81 105 81 204V730H189V204Q189 149 216.5 117.0Q244 85 300 85Q355 85 383.0 117.0Q411 149 411 204V730H519V204Q519 105 462.0 47.5Q405 -10 300 -10Z" transform="translate(362.5,302.0) scale(0.01300,-0.01300)" fill="rgba(245,240,232,0.7)"/>
<path d="M85 0V730H300Q404 730 463.0 680.0Q522 630 522 542Q522 492 500.5 455.5Q479 419 441.0 399.0Q403 379 352 379V389Q407 390 449.0 368.5Q491 347 515.0 305.0Q539 263 539 205Q539 143 511.5 96.5Q484 50 433.5 25.0Q383 0 314 0ZM190 93H305Q363 93 397.0 124.0Q431 155 431 210Q431 266 397.0 300.0Q363 334 305 334H190ZM190 424H299Q353 424 384.0 453.0Q415 482 415 531Q415 580 384.0 608.5Q353 637 300 637H190Z" transform="translate(373.3,302.0) scale(0.01300,-0.01300)" fill="rgba(245,240,232,0.7)"/>
<path d="M109 0V730H217V99H536V0Z" transform="translate(384.1,302.0) scale(0.01300,-0.01300)" fill="rgba(245,240,232,0.7)"/>
<path d="M98 0V96H245V634H98V730H502V634H355V96H502V0Z" transform="translate(394.9,302.0) scale(0.01300,-0.01300)" fill="rgba(245,240,232,0.7)"/>
<path d="M304 -10Q236 -10 185.5 15.5Q135 41 107.5 89.5Q80 138 80 203V527Q80 593 107.5 641.0Q135 689 185.5 714.5Q236 740 304 740Q372 740 422.0 714.0Q472 688 499.5 640.5Q527 593 527 527H419Q419 584 389.0 614.0Q359 644 304 644Q249 644 218.5 614.0Q188 584 188 528V203Q188 147 218.5 116.5Q249 86 304 86Q359 86 389.0 116.5Q419 147 419 203H527Q527 138 499.5 90.0Q472 42 422.0 16.0Q372 -10 304 -10Z" transform="translate(405.7,302.0) scale(0.01300,-0.01300)" fill="rgba(245,240,232,0.7)"/>
</svg>