<svg xmlns="http://www.w3.org/2000/svg" width="560" height="420" viewBox="0 0 560 420">
<rect width="560" height="420" fill="#f2eee2"/>
<line x1="150" y1="272" x2="410" y2="272" stroke="#8a5a2a" stroke-width="1"/>
<path d="M210 604Q149 604 110.5 566.0Q72 528 50 454Q50 451 44.5 451.5Q39 452 39 454Q41 468 43.0 492.5Q45 517 47.5 546.0Q50 575 51.5 602.5Q53 630 53 647Q53 652 58.5 652.0Q64 652 64 647Q64 637 74.5 632.5Q85 628 98.0 626.5Q111 625 120 625Q206 622 321 622Q392 622 433.5 623.5Q475 625 514 625Q550 625 568.5 629.5Q587 634 592 650Q593 654 598.0 654.0Q603 654 603 650Q602 634 600.0 606.5Q598 579 597.0 548.5Q596 518 595.0 492.5Q594 467 594 454Q594 452 588.5 452.0Q583 452 582 454Q571 533 534.0 568.5Q497 604 435 604Q408 604 394.0 599.0Q380 594 375.0 580.5Q370 567 370 542V81Q370 52 376.5 37.0Q383 22 401.5 17.0Q420 12 458 12Q461 12 461.0 6.0Q461 0 458 0Q431 0 396.5 1.0Q362 2 321 2Q282 2 248.0 1.0Q214 0 185 0Q183 0 183.0 6.0Q183 12 185 12Q223 12 242.0 17.0Q261 22 267.5 37.0Q274 52 274 81V544Q274 569 269.5 581.5Q265 594 251.0 599.0Q237 604 210 604Z" transform="translate(253.6,175.0) scale(0.02200,-0.02200)" fill="#8a5a2a"/>
<path d="M553 542Q553 571 547.0 586.0Q541 601 523.0 607.0Q505 613 468 613Q465 613 465.0 619.0Q465 625 468 625Q493 625 525.5 623.5Q558 622 601 622Q636 622 670.0 623.5Q704 625 729 625Q732 625 732.0 619.0Q732 613 729 613Q694 613 676.5 607.5Q659 602 653.0 587.5Q647 573 647 544V81Q647 52 653.0 37.0Q659 22 676.5 17.0Q694 12 729 12Q732 12 732.0 6.0Q732 0 729 0Q704 0 670.0 1.0Q636 2 601 2Q558 2 525.5 1.0Q493 0 468 0Q465 0 465.0 6.0Q465 12 468 12Q505 12 523.0 17.0Q541 22 547.0 37.0Q553 52 553 81ZM158 312V338H596V312ZM114 81V544Q114 573 108.0 587.5Q102 602 85.0 607.5Q68 613 33 613Q31 613 31.0 619.0Q31 625 33 625Q59 625 91.0 623.5Q123 622 158 622Q201 622 234.0 623.5Q267 625 293 625Q295 625 295.0 619.0Q295 613 293 613Q257 613 239.0 607.0Q221 601 215.0 586.0Q209 571 209 542V81Q209 52 215.0 37.0Q221 22 239.5 17.0Q258 12 293 12Q295 12 295.0 6.0Q295 0 293 0Q266 0 233.5 1.0Q201 2 158 2Q123 2 90.0 1.0Q57 0 32 0Q30 0 30.0 6.0Q30 12 32 12Q67 12 84.0 17.0Q101 22 107.5 37.0Q114 52 114 81Z" transform="translate(272.6,175.0) scale(0.02200,-0.02200)" fill="#8a5a2a"/>
<path d="M476 0H42Q39 0 39.0 6.0Q39 12 42 12Q75 12 91.0 17.0Q107 22 112.5 37.0Q118 52 118 81V544Q118 573 112.5 587.5Q107 602 91.0 607.5Q75 613 42 613Q39 613 39.0 619.0Q39 625 42 625H458Q468 625 468 616L470 486Q470 484 465.0 483.5Q460 483 458 486Q447 543 412.0 571.0Q377 599 320 599H279Q254 599 239.5 593.5Q225 588 219.0 575.5Q213 563 213 542V85Q213 64 218.5 50.5Q224 37 236.0 31.5Q248 26 270 26H319Q387 26 429.0 58.5Q471 91 489 155Q490 158 495.5 157.0Q501 156 501 154Q497 126 494.0 87.0Q491 48 491 15Q491 0 476 0ZM420 226Q420 268 392.0 290.0Q364 312 308 312H168V338H309Q365 338 392.0 357.0Q419 376 419 412Q419 415 424.5 415.0Q430 415 430 412Q430 380 429.5 362.0Q429 344 429 325Q429 301 430.5 277.5Q432 254 432 226Q432 224 426.0 224.0Q420 224 420 226Z" transform="translate(294.4,175.0) scale(0.02200,-0.02200)" fill="#8a5a2a"/>
<path d="M326 -4Q294 -4 246.0 -1.0Q198 2 158 2Q122 2 89.0 1.0Q56 0 30 0Q28 0 28.0 6.0Q28 12 30 12Q61 12 76.5 17.0Q92 22 97.5 37.0Q103 52 103 81V544Q103 573 98.0 587.5Q93 602 77.5 607.5Q62 613 32 613Q29 613 29.0 619.0Q29 625 32 625Q58 625 90.0 623.5Q122 622 159 622Q195 622 238.0 624.5Q281 627 312 627Q416 627 493.0 587.0Q570 547 613.0 478.0Q656 409 656 323Q656 248 630.0 187.5Q604 127 558.0 84.5Q512 42 452.5 19.0Q393 -4 326 -4ZM316 19Q379 19 428.0 51.5Q477 84 505.0 147.0Q533 210 533 301Q533 386 507.0 455.0Q481 524 434.0 564.5Q387 605 322 605Q264 605 239.0 594.0Q214 583 214 542V92Q214 55 233.5 37.0Q253 19 316 19Z" transform="translate(86.9,240.0) scale(0.04600,-0.04600)" fill="#2a2416"/>
<path d="M366 -12Q294 -12 235.5 13.5Q177 39 135.5 84.0Q94 129 71.5 187.5Q49 246 49 312Q49 393 80.5 454.0Q112 515 164.0 555.5Q216 596 278.0 616.0Q340 636 401 636Q475 636 533.5 609.5Q592 583 633.0 538.0Q674 493 695.5 436.0Q717 379 717 319Q717 249 689.0 189.0Q661 129 612.5 84.0Q564 39 500.5 13.5Q437 -12 366 -12ZM399 13Q455 13 499.0 45.0Q543 77 568.5 139.0Q594 201 594 290Q594 382 566.0 454.0Q538 526 486.0 567.5Q434 609 361 609Q270 609 221.0 540.0Q172 471 172 349Q172 276 189.0 214.5Q206 153 236.5 107.5Q267 62 308.5 37.5Q350 13 399 13Z" transform="translate(120.4,240.0) scale(0.04600,-0.04600)" fill="#2a2416"/>
<path d="M530 0Q515 0 481.5 37.5Q448 75 401.0 146.0Q354 217 295 316L387 344Q467 223 523.5 150.0Q580 77 624.0 44.5Q668 12 708 12Q710 12 710.0 6.0Q710 0 708 0Q638 0 594.0 0.0Q550 0 530 0ZM315 628Q407 628 456.5 594.5Q506 561 506 501Q506 442 473.0 396.5Q440 351 388.5 326.0Q337 301 280 301Q266 301 251.5 301.0Q237 301 225 302V81Q225 52 230.0 37.0Q235 22 250.0 17.0Q265 12 296 12Q298 12 298.0 6.0Q298 0 296 0Q270 0 238.0 1.0Q206 2 168 2Q132 2 99.5 1.0Q67 0 41 0Q38 0 38.0 6.0Q38 12 41 12Q72 12 87.0 17.0Q102 22 107.5 37.0Q113 52 113 81V544Q113 573 108.0 587.5Q103 602 88.0 607.5Q73 613 42 613Q40 613 40.0 619.0Q40 625 42 625Q68 625 100.0 623.5Q132 622 168 622Q201 622 240.5 625.0Q280 628 315 628ZM392 463Q392 522 380.0 553.0Q368 584 347.0 595.5Q326 607 299 607Q259 607 242.0 592.0Q225 577 225 542V330Q239 328 255.0 327.0Q271 326 283 326Q342 326 367.0 358.5Q392 391 392 463Z" transform="translate(156.6,240.0) scale(0.04600,-0.04600)" fill="#2a2416"/>
<path d="M665 625Q668 625 668.0 619.0Q668 613 665 613Q628 613 595.5 581.0Q563 549 543 495L358 1Q357 -3 347.5 -3.0Q338 -3 336 1L81 542Q64 577 46.0 595.0Q28 613 5 613Q2 613 2.0 619.0Q2 625 5 625Q17 625 23.5 624.0Q30 623 41.5 622.5Q53 622 78 622Q134 622 169.0 622.5Q204 623 226.0 624.0Q248 625 264 625Q267 625 267.0 619.0Q267 613 264 613Q221 613 207.0 589.0Q193 565 212 524L394 136L347 54L515 498Q533 547 517.5 580.0Q502 613 453 613Q450 613 450.0 619.0Q450 625 453 625Q482 625 508.0 623.5Q534 622 577 622Q605 622 622.5 623.5Q640 625 665 625Z" transform="translate(189.7,240.0) scale(0.04600,-0.04600)" fill="#2a2416"/>
<path d="M483 0H41Q38 0 38.0 6.0Q38 12 41 12Q72 12 87.0 17.0Q102 22 107.0 37.0Q112 52 112 81V544Q112 573 107.0 587.5Q102 602 87.0 607.5Q72 613 41 613Q38 613 38.0 619.0Q38 625 41 625H465Q475 625 475 616L477 483Q477 481 472.0 480.0Q467 479 465 482Q449 541 411.0 568.5Q373 596 311 596H281Q261 596 248.0 590.5Q235 585 229.0 573.0Q223 561 223 543V85Q223 66 228.0 53.0Q233 40 243.0 34.0Q253 28 269 28H302Q380 28 427.0 60.0Q474 92 496 159Q497 162 502.5 160.5Q508 159 508 157Q504 128 501.0 88.5Q498 49 498 15Q498 0 483 0ZM427 223Q427 264 396.0 287.5Q365 311 305 311H170V339H306Q365 339 395.5 359.5Q426 380 426 415Q426 418 431.5 418.0Q437 418 437 415Q437 382 436.5 363.5Q436 345 436 325Q436 300 437.5 276.0Q439 252 439 223Q439 221 433.0 221.0Q427 221 427 223Z" transform="translate(221.1,240.0) scale(0.04600,-0.04600)" fill="#2a2416"/>
<path d="M127 127V602L157 600V127Q157 74 179.0 43.0Q201 12 240 12Q242 12 242.0 6.0Q242 0 240 0Q218 0 194.5 1.0Q171 2 143 2Q113 2 84.5 1.0Q56 0 32 0Q29 0 29.0 6.0Q29 12 32 12Q76 12 101.5 43.0Q127 74 127 127ZM637 -15Q637 -18 632.5 -18.5Q628 -19 626 -18L133 543Q97 584 72.0 598.5Q47 613 22 613Q20 613 20.0 619.0Q20 625 22 625Q42 625 63.0 624.0Q84 623 102 623Q138 623 167.0 624.0Q196 625 212 625Q225 625 231.5 613.5Q238 602 262 573L629 150ZM637 497V-15L608 15V497Q608 550 586.0 581.5Q564 613 525 613Q523 613 523.0 619.0Q523 625 525 625Q547 625 570.5 623.5Q594 622 622 622Q649 622 675.0 623.5Q701 625 723 625Q725 625 725.0 619.0Q725 613 723 613Q683 613 660.0 581.5Q637 550 637 497Z" transform="translate(247.5,240.0) scale(0.04600,-0.04600)" fill="#2a2416"/>
<path d="M213 543V85Q213 61 217.0 48.5Q221 36 233.5 32.0Q246 28 270 28H304Q382 28 439.0 70.0Q496 112 515 182Q516 185 521.0 184.0Q526 183 526 180Q523 147 520.0 100.5Q517 54 517 15Q517 0 502 0H30Q28 0 28.0 6.0Q28 12 30 12Q61 12 76.0 17.0Q91 22 96.5 37.0Q102 52 102 81V544Q102 573 96.5 587.5Q91 602 76.0 607.5Q61 613 30 613Q28 613 28.0 619.0Q28 625 30 625Q54 625 87.5 623.5Q121 622 157 622Q195 622 227.0 623.5Q259 625 284 625Q287 625 287.0 619.0Q287 613 284 613Q254 613 238.5 607.5Q223 602 218.0 587.0Q213 572 213 543Z" transform="translate(294.0,240.0) scale(0.04600,-0.04600)" fill="#2a2416"/>
<path d="M483 0H41Q38 0 38.0 6.0Q38 12 41 12Q72 12 87.0 17.0Q102 22 107.0 37.0Q112 52 112 81V544Q112 573 107.0 587.5Q102 602 87.0 607.5Q72 613 41 613Q38 613 38.0 619.0Q38 625 41 625H465Q475 625 475 616L477 483Q477 481 472.0 480.0Q467 479 465 482Q449 541 411.0 568.5Q373 596 311 596H281Q261 596 248.0 590.5Q235 585 229.0 573.0Q223 561 223 543V85Q223 66 228.0 53.0Q233 40 243.0 34.0Q253 28 269 28H302Q380 28 427.0 60.0Q474 92 496 159Q497 162 502.5 160.5Q508 159 508 157Q504 128 501.0 88.5Q498 49 498 15Q498 0 483 0ZM427 223Q427 264 396.0 287.5Q365 311 305 311H170V339H306Q365 339 395.5 359.5Q426 380 426 415Q426 418 431.5 418.0Q437 418 437 415Q437 382 436.5 363.5Q436 345 436 325Q436 300 437.5 276.0Q439 252 439 223Q439 221 433.0 221.0Q427 221 427 223Z" transform="translate(320.1,240.0) scale(0.04600,-0.04600)" fill="#2a2416"/>
<path d="M326 -4Q294 -4 246.0 -1.0Q198 2 158 2Q122 2 89.0 1.0Q56 0 30 0Q28 0 28.0 6.0Q28 12 30 12Q61 12 76.5 17.0Q92 22 97.5 37.0Q103 52 103 81V544Q103 573 98.0 587.5Q93 602 77.5 607.5Q62 613 32 613Q29 613 29.0 619.0Q29 625 32 625Q58 625 90.0 623.5Q122 622 159 622Q195 622 238.0 624.5Q281 627 312 627Q416 627 493.0 587.0Q570 547 613.0 478.0Q656 409 656 323Q656 248 630.0 187.5Q604 127 558.0 84.5Q512 42 452.5 19.0Q393 -4 326 -4ZM316 19Q379 19 428.0 51.5Q477 84 505.0 147.0Q533 210 533 301Q533 386 507.0 455.0Q481 524 434.0 564.5Q387 605 322 605Q264 605 239.0 594.0Q214 583 214 542V92Q214 55 233.5 37.0Q253 19 316 19Z" transform="translate(346.5,240.0) scale(0.04600,-0.04600)" fill="#2a2416"/>
<path d="M421 -12Q333 -12 264.0 13.0Q195 38 147.0 82.0Q99 126 74.0 184.0Q49 242 49 308Q49 381 78.0 441.0Q107 501 160.0 544.5Q213 588 284.0 612.0Q355 636 439 636Q486 636 534.0 629.0Q582 622 612 609Q623 605 624.5 602.5Q626 600 627 586L640 447Q640 444 635.0 443.0Q630 442 628 446Q621 465 603.5 493.5Q586 522 558.0 549.5Q530 577 491.0 596.0Q452 615 401 615Q337 615 284.5 580.5Q232 546 201.0 482.0Q170 418 170 329Q170 257 190.5 198.0Q211 139 248.5 95.5Q286 52 336.0 28.5Q386 5 446 5Q484 5 507.0 14.0Q530 23 540.5 49.0Q551 75 551 126Q551 174 545.5 196.5Q540 219 519.0 226.0Q498 233 451 233Q445 233 445.0 241.0Q445 249 450 249Q520 245 576.0 244.5Q632 244 694 247Q698 247 698.5 240.0Q699 233 694 233Q677 234 669.0 226.5Q661 219 659.0 194.0Q657 169 657 116Q657 83 659.0 67.0Q661 51 662.5 43.5Q664 36 664 28Q664 22 662.0 20.0Q660 18 653 16Q598 4 537.5 -4.0Q477 -12 421 -12Z" transform="translate(379.9,240.0) scale(0.04600,-0.04600)" fill="#2a2416"/>
<path d="M483 0H41Q38 0 38.0 6.0Q38 12 41 12Q72 12 87.0 17.0Q102 22 107.0 37.0Q112 52 112 81V544Q112 573 107.0 587.5Q102 602 87.0 607.5Q72 613 41 613Q38 613 38.0 619.0Q38 625 41 625H465Q475 625 475 616L477 483Q477 481 472.0 480.0Q467 479 465 482Q449 541 411.0 568.5Q373 596 311 596H281Q261 596 248.0 590.5Q235 585 229.0 573.0Q223 561 223 543V85Q223 66 228.0 53.0Q233 40 243.0 34.0Q253 28 269 28H302Q380 28 427.0 60.0Q474 92 496 159Q497 162 502.5 160.5Q508 159 508 157Q504 128 501.0 88.5Q498 49 498 15Q498 0 483 0ZM427 223Q427 264 396.0 287.5Q365 311 305 311H170V339H306Q365 339 395.5 359.5Q426 380 426 415Q426 418 431.5 418.0Q437 418 437 415Q437 382 436.5 363.5Q436 345 436 325Q436 300 437.5 276.0Q439 252 439 223Q439 221 433.0 221.0Q427 221 427 223Z" transform="translate(414.6,240.0) scale(0.04600,-0.04600)" fill="#2a2416"/>
<path d="M530 0Q515 0 481.5 37.5Q448 75 401.0 146.0Q354 217 295 316L387 344Q467 223 523.5 150.0Q580 77 624.0 44.5Q668 12 708 12Q710 12 710.0 6.0Q710 0 708 0Q638 0 594.0 0.0Q550 0 530 0ZM315 628Q407 628 456.5 594.5Q506 561 506 501Q506 442 473.0 396.5Q440 351 388.5 326.0Q337 301 280 301Q266 301 251.5 301.0Q237 301 225 302V81Q225 52 230.0 37.0Q235 22 250.0 17.0Q265 12 296 12Q298 12 298.0 6.0Q298 0 296 0Q270 0 238.0 1.0Q206 2 168 2Q132 2 99.5 1.0Q67 0 41 0Q38 0 38.0 6.0Q38 12 41 12Q72 12 87.0 17.0Q102 22 107.5 37.0Q113 52 113 81V544Q113 573 108.0 587.5Q103 602 88.0 607.5Q73 613 42 613Q40 613 40.0 619.0Q40 625 42 625Q68 625 100.0 623.5Q132 622 168 622Q201 622 240.5 625.0Q280 628 315 628ZM392 463Q392 522 380.0 553.0Q368 584 347.0 595.5Q326 607 299 607Q259 607 242.0 592.0Q225 577 225 542V330Q239 328 255.0 327.0Q271 326 283 326Q342 326 367.0 358.5Q392 391 392 463Z" transform="translate(441.0,240.0) scale(0.04600,-0.04600)" fill="#2a2416"/>
<path d="M83 0V730H287Q359 730 412.0 702.5Q465 675 494.5 625.0Q524 575 524 507V224Q524 157 494.5 106.0Q465 55 412.0 27.5Q359 0 287 0ZM191 98H287Q347 98 381.5 131.5Q416 165 416 224V507Q416 565 381.5 598.5Q347 632 287 632H191Z" transform="translate(133.8,306.0) scale(0.01200,-0.01200)" fill="#6a6252"/>
<path d="M300 -10Q232 -10 182.5 15.5Q133 41 106.5 89.5Q80 138 80 203V527Q80 593 106.5 641.0Q133 689 182.5 714.5Q232 740 300 740Q368 740 417.5 714.5Q467 689 493.5 641.0Q520 593 520 528V203Q520 138 493.5 89.5Q467 41 417.5 15.5Q368 -10 300 -10ZM300 86Q355 86 383.5 116.5Q412 147 412 203V527Q412 584 383.5 614.0Q355 644 300 644Q246 644 217.0 614.0Q188 584 188 527V203Q188 147 217.0 116.5Q246 86 300 86Z" transform="translate(143.0,306.0) scale(0.01200,-0.01200)" fill="#6a6252"/>
<path d="M84 0V730H313Q382 730 433.0 703.5Q484 677 512.5 629.0Q541 581 541 516Q541 443 503.5 389.5Q466 336 402 314L551 0H428L295 300H192V0ZM192 395H313Q367 395 399.0 427.5Q431 460 431 514Q431 570 399.0 602.0Q367 634 313 634H192Z" transform="translate(152.2,306.0) scale(0.01200,-0.01200)" fill="#6a6252"/>
<path d="M228 0 43 730H154L271 244Q282 201 290.5 158.5Q299 116 303 92Q307 116 314.5 158.5Q322 201 333 245L449 730H557L371 0Z" transform="translate(161.4,306.0) scale(0.01200,-0.01200)" fill="#6a6252"/>
<path d="M94 0V730H523V634H200V427H488V332H200V96H523V0Z" transform="translate(170.6,306.0) scale(0.01200,-0.01200)" fill="#6a6252"/>
<path d="M81 0V730H217L430 123Q428 152 425.0 192.0Q422 232 420.5 275.0Q419 318 419 353V730H519V0H383L171 607Q173 581 175.5 542.0Q178 503 179.5 461.0Q181 419 181 383V0Z" transform="translate(179.8,306.0) scale(0.01200,-0.01200)" fill="#6a6252"/>
<path d="M304 -10Q236 -10 185.5 15.5Q135 41 107.5 89.5Q80 138 80 203V527Q80 593 107.5 641.0Q135 689 185.5 714.5Q236 740 304 740Q372 740 422.0 714.0Q472 688 499.5 640.5Q527 593 527 527H419Q419 584 389.0 614.0Q359 644 304 644Q249 644 218.5 614.0Q188 584 188 528V203Q188 147 218.5 116.5Q249 86 304 86Q359 86 389.0 116.5Q419 147 419 203H527Q527 138 499.5 90.0Q472 42 422.0 16.0Q372 -10 304 -10Z" transform="translate(198.2,306.0) scale(0.01200,-0.01200)" fill="#6a6252"/>
<path d="M300 -10Q232 -10 182.5 15.5Q133 41 106.5 89.5Q80 138 80 203V527Q80 593 106.5 641.0Q133 689 182.5 714.5Q232 740 300 740Q368 740 417.5 714.5Q467 689 493.5 641.0Q520 593 520 528V203Q520 138 493.5 89.5Q467 41 417.5 15.5Q368 -10 300 -10ZM300 86Q355 86 383.5 116.5Q412 147 412 203V527Q412 584 383.5 614.0Q355 644 300 644Q246 644 217.0 614.0Q188 584 188 527V203Q188 147 217.0 116.5Q246 86 300 86Z" transform="translate(207.4,306.0) scale(0.01200,-0.01200)" fill="#6a6252"/>
<path d="M300 -10Q195 -10 138.0 47.5Q81 105 81 204V730H189V204Q189 149 216.5 117.0Q244 85 300 85Q355 85 383.0 117.0Q411 149 411 204V730H519V204Q519 105 462.0 47.5Q405 -10 300 -10Z" transform="translate(216.6,306.0) scale(0.01200,-0.01200)" fill="#6a6252"/>
<path d="M81 0V730H217L430 123Q428 152 425.0 192.0Q422 232 420.5 275.0Q419 318 419 353V730H519V0H383L171 607Q173 581 175.5 542.0Q178 503 179.5 461.0Q181 419 181 383V0Z" transform="translate(225.8,306.0) scale(0.01200,-0.01200)" fill="#6a6252"/>
<path d="M246 0V631H51V731H549V631H354V0Z" transform="translate(235.0,306.0) scale(0.01200,-0.01200)" fill="#6a6252"/>
<path d="M246 0V269L29 730H141L270 454Q283 427 291.0 403.5Q299 380 302 367Q304 380 312.5 403.5Q321 427 333 454L459 730H571L354 269V0Z" transform="translate(244.2,306.0) scale(0.01200,-0.01200)" fill="#6a6252"/>
<path d="M303 -10Q229 -10 176.0 14.5Q123 39 94.0 84.5Q65 130 65 193H172Q172 143 207.0 114.5Q242 86 304 86Q362 86 395.0 114.0Q428 142 428 191Q428 232 405.5 262.0Q383 292 341 303L249 330Q169 353 125.5 408.5Q82 464 82 541Q82 601 109.0 646.0Q136 691 186.0 716.0Q236 741 304 741Q404 741 464.5 687.0Q525 633 526 542H418Q418 590 387.5 617.5Q357 645 302 645Q249 645 219.0 619.5Q189 594 189 548Q189 507 211.5 477.0Q234 447 276 435L369 407Q449 385 492.0 329.0Q535 273 535 195Q535 134 506.0 87.5Q477 41 425.0 15.5Q373 -10 303 -10Z" transform="translate(262.6,306.0) scale(0.01200,-0.01200)" fill="#6a6252"/>
<path d="M98 0V96H245V634H98V730H502V634H355V96H502V0Z" transform="translate(271.8,306.0) scale(0.01200,-0.01200)" fill="#6a6252"/>
<path d="M81 0V730H217L430 123Q428 152 425.0 192.0Q422 232 420.5 275.0Q419 318 419 353V730H519V0H383L171 607Q173 581 175.5 542.0Q178 503 179.5 461.0Q181 419 181 383V0Z" transform="translate(281.0,306.0) scale(0.01200,-0.01200)" fill="#6a6252"/>
<path d="M304 -10Q236 -10 185.5 15.5Q135 41 107.5 89.5Q80 138 80 203V527Q80 593 107.5 641.0Q135 689 185.5 714.5Q236 740 304 740Q372 740 422.0 714.0Q472 688 499.5 640.5Q527 593 527 527H419Q419 584 389.0 614.0Q359 644 304 644Q249 644 218.5 614.0Q188 584 188 528V203Q188 147 218.5 116.5Q249 86 304 86Q359 86 389.0 116.5Q419 147 419 203H527Q527 138 499.5 90.0Q472 42 422.0 16.0Q372 -10 304 -10Z" transform="translate(290.2,306.0) scale(0.01200,-0.01200)" fill="#6a6252"/>
<path d="M94 0V730H523V634H200V427H488V332H200V96H523V0Z" transform="translate(299.4,306.0) scale(0.01200,-0.01200)" fill="#6a6252"/>
<path d="M246 0V631H51V731H549V631H354V0Z" transform="translate(317.8,306.0) scale(0.01200,-0.01200)" fill="#6a6252"/>
<path d="M85 0V730H193V428H407V730H515V0H407V328H193V0Z" transform="translate(327.0,306.0) scale(0.01200,-0.01200)" fill="#6a6252"/>
<path d="M94 0V730H523V634H200V427H488V332H200V96H523V0Z" transform="translate(336.2,306.0) scale(0.01200,-0.01200)" fill="#6a6252"/>
<path d="M88 0V731H529V631H193V413H503V313H195V0Z" transform="translate(354.6,306.0) scale(0.01200,-0.01200)" fill="#6a6252"/>
<path d="M300 -10Q232 -10 182.5 15.5Q133 41 106.5 89.5Q80 138 80 203V527Q80 593 106.5 641.0Q133 689 182.5 714.5Q232 740 300 740Q368 740 417.5 714.5Q467 689 493.5 641.0Q520 593 520 528V203Q520 138 493.5 89.5Q467 41 417.5 15.5Q368 -10 300 -10ZM300 86Q355 86 383.5 116.5Q412 147 412 203V527Q412 584 383.5 614.0Q355 644 300 644Q246 644 217.0 614.0Q188 584 188 527V203Q188 147 217.0 116.5Q246 86 300 86Z" transform="translate(363.8,306.0) scale(0.01200,-0.01200)" fill="#6a6252"/>
<path d="M300 -10Q195 -10 138.0 47.5Q81 105 81 204V730H189V204Q189 149 216.5 117.0Q244 85 300 85Q355 85 383.0 117.0Q411 149 411 204V730H519V204Q519 105 462.0 47.5Q405 -10 300 -10Z" transform="translate(373.0,306.0) scale(0.01200,-0.01200)" fill="#6a6252"/>
<path d="M81 0V730H217L430 123Q428 152 425.0 192.0Q422 232 420.5 275.0Q419 318 419 353V730H519V0H383L171 607Q173 581 175.5 542.0Q178 503 179.5 461.0Q181 419 181 383V0Z" transform="translate(382.2,306.0) scale(0.01200,-0.01200)" fill="#6a6252"/>
<path d="M83 0V730H287Q359 730 412.0 702.5Q465 675 494.5 625.0Q524 575 524 507V224Q524 157 494.5 106.0Q465 55 412.0 27.5Q359 0 287 0ZM191 98H287Q347 98 381.5 131.5Q416 165 416 224V507Q416 565 381.5 598.5Q347 632 287 632H191Z" transform="translate(391.4,306.0) scale(0.01200,-0.01200)" fill="#6a6252"/>
<path d="M98 0V96H245V634H98V730H502V634H355V96H502V0Z" transform="translate(400.6,306.0) scale(0.01200,-0.01200)" fill="#6a6252"/>
<path d="M81 0V730H217L430 123Q428 152 425.0 192.0Q422 232 420.5 275.0Q419 318 419 353V730H519V0H383L171 607Q173 581 175.5 542.0Q178 503 179.5 461.0Q181 419 181 383V0Z" transform="translate(409.8,306.0) scale(0.01200,-0.01200)" fill="#6a6252"/>
<path d="M304 -10Q236 -10 185.5 15.5Q135 41 107.5 89.5Q80 138 80 203V527Q80 593 107.5 641.0Q135 689 185.5 714.5Q236 740 304 740Q372 740 422.0 714.0Q472 688 499.5 640.5Q527 593 527 527H419Q419 584 389.0 614.0Q359 644 304 644Q249 644 218.5 614.0Q188 584 188 528V203Q188 147 218.5 116.0Q249 85 304 85Q359 85 389.0 116.0Q419 147 419 203V285H283V380H527V203Q527 138 499.5 90.0Q472 42 422.0 16.0Q372 -10 304 -10Z" transform="translate(419.0,306.0) scale(0.01200,-0.01200)" fill="#6a6252"/>
</svg>