<svg xmlns="http://www.w3.org/2000/svg" width="560" height="420" viewBox="0 0 560 420">
<rect width="560" height="420" fill="#1B2A4A"/>
<line x1="140" y1="285" x2="420" y2="285" stroke="#C9A84C" stroke-width="1.5"/>
<path d="M210 604Q149 604 110.5 566.0Q72 528 50 454Q50 451 44.5 451.5Q39 452 39 454Q41 468 43.0 492.5Q45 517 47.5 546.0Q50 575 51.5 602.5Q53 630 53 647Q53 652 58.5 652.0Q64 652 64 647Q64 637 74.5 632.5Q85 628 98.0 626.5Q111 625 120 625Q206 622 321 622Q392 622 433.5 623.5Q475 625 514 625Q550 625 568.5 629.5Q587 634 592 650Q593 654 598.0 654.0Q603 654 603 650Q602 634 600.0 606.5Q598 579 597.0 548.5Q596 518 595.0 492.5Q594 467 594 454Q594 452 588.5 452.0Q583 452 582 454Q571 533 534.0 568.5Q497 604 435 604Q408 604 394.0 599.0Q380 594 375.0 580.5Q370 567 370 542V81Q370 52 376.5 37.0Q383 22 401.5 17.0Q420 12 458 12Q461 12 461.0 6.0Q461 0 458 0Q431 0 396.5 1.0Q362 2 321 2Q282 2 248.0 1.0Q214 0 185 0Q183 0 183.0 6.0Q183 12 185 12Q223 12 242.0 17.0Q261 22 267.5 37.0Q274 52 274 81V544Q274 569 269.5 581.5Q265 594 251.0 599.0Q237 604 210 604Z" transform="translate(250.6,180.0) scale(0.02400,-0.02400)" fill="#C9A84C"/>
<path d="M553 542Q553 571 547.0 586.0Q541 601 523.0 607.0Q505 613 468 613Q465 613 465.0 619.0Q465 625 468 625Q493 625 525.5 623.5Q558 622 601 622Q636 622 670.0 623.5Q704 625 729 625Q732 625 732.0 619.0Q732 613 729 613Q694 613 676.5 607.5Q659 602 653.0 587.5Q647 573 647 544V81Q647 52 653.0 37.0Q659 22 676.5 17.0Q694 12 729 12Q732 12 732.0 6.0Q732 0 729 0Q704 0 670.0 1.0Q636 2 601 2Q558 2 525.5 1.0Q493 0 468 0Q465 0 465.0 6.0Q465 12 468 12Q505 12 523.0 17.0Q541 22 547.0 37.0Q553 52 553 81ZM158 312V338H596V312ZM114 81V544Q114 573 108.0 587.5Q102 602 85.0 607.5Q68 613 33 613Q31 613 31.0 619.0Q31 625 33 625Q59 625 91.0 623.5Q123 622 158 622Q201 622 234.0 623.5Q267 625 293 625Q295 625 295.0 619.0Q295 613 293 613Q257 613 239.0 607.0Q221 601 215.0 586.0Q209 571 209 542V81Q209 52 215.0 37.0Q221 22 239.5 17.0Q258 12 293 12Q295 12 295.0 6.0Q295 0 293 0Q266 0 233.5 1.0Q201 2 158 2Q123 2 90.0 1.0Q57 0 32 0Q30 0 30.0 6.0Q30 12 32 12Q67 12 84.0 17.0Q101 22 107.5 37.0Q114 52 114 81Z" transform="translate(272.0,180.0) scale(0.02400,-0.02400)" fill="#C9A84C"/>
<path d="M476 0H42Q39 0 39.0 6.0Q39 12 42 12Q75 12 91.0 17.0Q107 22 112.5 37.0Q118 52 118 81V544Q118 573 112.5 587.5Q107 602 91.0 607.5Q75 613 42 613Q39 613 39.0 619.0Q39 625 42 625H458Q468 625 468 616L470 486Q470 484 465.0 483.5Q460 483 458 486Q447 543 412.0 571.0Q377 599 320 599H279Q254 599 239.5 593.5Q225 588 219.0 575.5Q213 563 213 542V85Q213 64 218.5 50.5Q224 37 236.0 31.5Q248 26 270 26H319Q387 26 429.0 58.5Q471 91 489 155Q490 158 495.5 157.0Q501 156 501 154Q497 126 494.0 87.0Q491 48 491 15Q491 0 476 0ZM420 226Q420 268 392.0 290.0Q364 312 308 312H168V338H309Q365 338 392.0 357.0Q419 376 419 412Q419 415 424.5 415.0Q430 415 430 412Q430 380 429.5 362.0Q429 344 429 325Q429 301 430.5 277.5Q432 254 432 226Q432 224 426.0 224.0Q420 224 420 226Z" transform="translate(296.3,180.0) scale(0.02400,-0.02400)" fill="#C9A84C"/>
<path d="M222 602Q161 602 118.5 561.5Q76 521 51 447Q50 444 45.0 444.5Q40 445 40 448Q42 462 44.0 487.5Q46 513 48.5 543.0Q51 573 52.5 601.0Q54 629 54 647Q54 652 59.5 652.0Q65 652 65 647Q65 637 75.5 632.5Q86 628 99.5 626.5Q113 625 122 625Q208 622 323 622Q393 622 435.0 623.5Q477 625 516 625Q552 625 570.5 629.5Q589 634 594 650Q595 654 600.5 654.0Q606 654 606 650Q604 634 602.5 605.5Q601 577 599.5 545.5Q598 514 597.0 487.5Q596 461 596 448Q596 445 591.0 445.0Q586 445 585 448Q570 527 528.5 564.5Q487 602 428 602Q408 602 397.5 596.5Q387 591 383.5 578.0Q380 565 380 542V81Q380 52 386.0 37.0Q392 22 409.5 17.0Q427 12 463 12Q466 12 466.0 6.0Q466 0 463 0Q435 0 400.0 1.0Q365 2 323 2Q283 2 248.0 1.0Q213 0 184 0Q181 0 181.0 6.0Q181 12 184 12Q219 12 237.0 17.0Q255 22 261.5 37.0Q268 52 268 81V544Q268 566 264.5 578.5Q261 591 251.0 596.5Q241 602 222 602Z" transform="translate(99.6,250.0) scale(0.05200,-0.05200)" fill="#F5F0E8"/>
<path d="M366 -12Q294 -12 235.5 13.5Q177 39 135.5 84.0Q94 129 71.5 187.5Q49 246 49 312Q49 393 80.5 454.0Q112 515 164.0 555.5Q216 596 278.0 616.0Q340 636 401 636Q475 636 533.5 609.5Q592 583 633.0 538.0Q674 493 695.5 436.0Q717 379 717 319Q717 249 689.0 189.0Q661 129 612.5 84.0Q564 39 500.5 13.5Q437 -12 366 -12ZM399 13Q455 13 499.0 45.0Q543 77 568.5 139.0Q594 201 594 290Q594 382 566.0 454.0Q538 526 486.0 567.5Q434 609 361 609Q270 609 221.0 540.0Q172 471 172 349Q172 276 189.0 214.5Q206 153 236.5 107.5Q267 62 308.5 37.5Q350 13 399 13Z" transform="translate(135.0,250.0) scale(0.05200,-0.05200)" fill="#F5F0E8"/>
<path d="M530 0Q515 0 481.5 37.5Q448 75 401.0 146.0Q354 217 295 316L387 344Q467 223 523.5 150.0Q580 77 624.0 44.5Q668 12 708 12Q710 12 710.0 6.0Q710 0 708 0Q638 0 594.0 0.0Q550 0 530 0ZM315 628Q407 628 456.5 594.5Q506 561 506 501Q506 442 473.0 396.5Q440 351 388.5 326.0Q337 301 280 301Q266 301 251.5 301.0Q237 301 225 302V81Q225 52 230.0 37.0Q235 22 250.0 17.0Q265 12 296 12Q298 12 298.0 6.0Q298 0 296 0Q270 0 238.0 1.0Q206 2 168 2Q132 2 99.5 1.0Q67 0 41 0Q38 0 38.0 6.0Q38 12 41 12Q72 12 87.0 17.0Q102 22 107.5 37.0Q113 52 113 81V544Q113 573 108.0 587.5Q103 602 88.0 607.5Q73 613 42 613Q40 613 40.0 619.0Q40 625 42 625Q68 625 100.0 623.5Q132 622 168 622Q201 622 240.5 625.0Q280 628 315 628ZM392 463Q392 522 380.0 553.0Q368 584 347.0 595.5Q326 607 299 607Q259 607 242.0 592.0Q225 577 225 542V330Q239 328 255.0 327.0Q271 326 283 326Q342 326 367.0 358.5Q392 391 392 463Z" transform="translate(176.8,250.0) scale(0.05200,-0.05200)" fill="#F5F0E8"/>
<path d="M483 0H41Q38 0 38.0 6.0Q38 12 41 12Q72 12 87.0 17.0Q102 22 107.0 37.0Q112 52 112 81V544Q112 573 107.0 587.5Q102 602 87.0 607.5Q72 613 41 613Q38 613 38.0 619.0Q38 625 41 625H465Q475 625 475 616L477 483Q477 481 472.0 480.0Q467 479 465 482Q449 541 411.0 568.5Q373 596 311 596H281Q261 596 248.0 590.5Q235 585 229.0 573.0Q223 561 223 543V85Q223 66 228.0 53.0Q233 40 243.0 34.0Q253 28 269 28H302Q380 28 427.0 60.0Q474 92 496 159Q497 162 502.5 160.5Q508 159 508 157Q504 128 501.0 88.5Q498 49 498 15Q498 0 483 0ZM427 223Q427 264 396.0 287.5Q365 311 305 311H170V339H306Q365 339 395.5 359.5Q426 380 426 415Q426 418 431.5 418.0Q437 418 437 415Q437 382 436.5 363.5Q436 345 436 325Q436 300 437.5 276.0Q439 252 439 223Q439 221 433.0 221.0Q427 221 427 223Z" transform="translate(215.1,250.0) scale(0.05200,-0.05200)" fill="#F5F0E8"/>
<path d="M127 127V602L157 600V127Q157 74 179.0 43.0Q201 12 240 12Q242 12 242.0 6.0Q242 0 240 0Q218 0 194.5 1.0Q171 2 143 2Q113 2 84.5 1.0Q56 0 32 0Q29 0 29.0 6.0Q29 12 32 12Q76 12 101.5 43.0Q127 74 127 127ZM637 -15Q637 -18 632.5 -18.5Q628 -19 626 -18L133 543Q97 584 72.0 598.5Q47 613 22 613Q20 613 20.0 619.0Q20 625 22 625Q42 625 63.0 624.0Q84 623 102 623Q138 623 167.0 624.0Q196 625 212 625Q225 625 231.5 613.5Q238 602 262 573L629 150ZM637 497V-15L608 15V497Q608 550 586.0 581.5Q564 613 525 613Q523 613 523.0 619.0Q523 625 525 625Q547 625 570.5 623.5Q594 622 622 622Q649 622 675.0 623.5Q701 625 723 625Q725 625 725.0 619.0Q725 613 723 613Q683 613 660.0 581.5Q637 550 637 497Z" transform="translate(245.8,250.0) scale(0.05200,-0.05200)" fill="#F5F0E8"/>
<path d="M222 602Q161 602 118.5 561.5Q76 521 51 447Q50 444 45.0 444.5Q40 445 40 448Q42 462 44.0 487.5Q46 513 48.5 543.0Q51 573 52.5 601.0Q54 629 54 647Q54 652 59.5 652.0Q65 652 65 647Q65 637 75.5 632.5Q86 628 99.5 626.5Q113 625 122 625Q208 622 323 622Q393 622 435.0 623.5Q477 625 516 625Q552 625 570.5 629.5Q589 634 594 650Q595 654 600.5 654.0Q606 654 606 650Q604 634 602.5 605.5Q601 577 599.5 545.5Q598 514 597.0 487.5Q596 461 596 448Q596 445 591.0 445.0Q586 445 585 448Q570 527 528.5 564.5Q487 602 428 602Q408 602 397.5 596.5Q387 591 383.5 578.0Q380 565 380 542V81Q380 52 386.0 37.0Q392 22 409.5 17.0Q427 12 463 12Q466 12 466.0 6.0Q466 0 463 0Q435 0 400.0 1.0Q365 2 323 2Q283 2 248.0 1.0Q213 0 184 0Q181 0 181.0 6.0Q181 12 184 12Q219 12 237.0 17.0Q255 22 261.5 37.0Q268 52 268 81V544Q268 566 264.5 578.5Q261 591 251.0 596.5Q241 602 222 602Z" transform="translate(286.0,250.0) scale(0.05200,-0.05200)" fill="#F5F0E8"/>
<path d="M543 542Q543 571 537.5 586.0Q532 601 514.0 607.0Q496 613 460 613Q457 613 457.0 619.0Q457 625 460 625Q486 625 519.5 623.5Q553 622 599 622Q635 622 670.5 623.5Q706 625 732 625Q735 625 735.0 619.0Q735 613 732 613Q699 613 682.0 607.5Q665 602 659.5 587.5Q654 573 654 544V81Q654 52 659.5 37.0Q665 22 682.0 17.0Q699 12 732 12Q735 12 735.0 6.0Q735 0 732 0Q706 0 670.5 1.0Q635 2 599 2Q553 2 519.5 1.0Q486 0 460 0Q457 0 457.0 6.0Q457 12 460 12Q496 12 514.0 17.0Q532 22 537.5 37.0Q543 52 543 81ZM161 311V339H594V311ZM109 81V544Q109 573 103.5 587.5Q98 602 81.5 607.5Q65 613 32 613Q29 613 29.0 619.0Q29 625 32 625Q58 625 91.0 623.5Q124 622 160 622Q206 622 240.5 623.5Q275 625 303 625Q305 625 305.0 619.0Q305 613 303 613Q268 613 250.0 607.0Q232 601 226.0 586.0Q220 571 220 542V81Q220 52 226.0 37.0Q232 22 250.0 17.0Q268 12 303 12Q305 12 305.0 6.0Q305 0 303 0Q274 0 240.0 1.0Q206 2 160 2Q124 2 90.0 1.0Q56 0 30 0Q28 0 28.0 6.0Q28 12 30 12Q64 12 80.5 17.0Q97 22 103.0 37.0Q109 52 109 81Z" transform="translate(321.5,250.0) scale(0.05200,-0.05200)" fill="#F5F0E8"/>
<path d="M227 81Q227 52 232.0 37.0Q237 22 252.0 17.0Q267 12 298 12Q301 12 301.0 6.0Q301 0 298 0Q272 0 240.0 1.0Q208 2 170 2Q134 2 101.0 1.0Q68 0 42 0Q40 0 40.0 6.0Q40 12 42 12Q73 12 88.5 17.0Q104 22 109.5 37.0Q115 52 115 81V544Q115 573 109.5 587.5Q104 602 88.5 607.5Q73 613 42 613Q40 613 40.0 619.0Q40 625 42 625Q68 625 101.0 623.5Q134 622 170 622Q208 622 240.5 623.5Q273 625 298 625Q301 625 301.0 619.0Q301 613 298 613Q268 613 252.5 607.0Q237 601 232.0 586.0Q227 571 227 542Z" transform="translate(363.2,250.0) scale(0.05200,-0.05200)" fill="#F5F0E8"/>
<path d="M171 229 186 257H474L481 229ZM717 12Q722 12 722.0 6.0Q722 0 717 0Q687 0 654.5 2.0Q622 4 592 4Q558 4 533.0 2.0Q508 0 477 0Q473 0 473.0 6.0Q473 12 477 12Q518 12 524.5 28.5Q531 45 506 94L303 495L352 581L153 142Q126 82 152.0 47.0Q178 12 234 12Q239 12 239.0 6.0Q239 0 234 0Q204 0 179.0 2.0Q154 4 116 4Q77 4 53.5 2.0Q30 0 -4 0Q-8 0 -8.0 6.0Q-8 12 -4 12Q23 12 42.5 23.5Q62 35 81.5 65.5Q101 96 126 152L343 629Q344 632 352.0 632.5Q360 633 361 629L611 137Q635 90 652.5 62.5Q670 35 685.5 23.5Q701 12 717 12Z" transform="translate(383.0,250.0) scale(0.05200,-0.05200)" fill="#F5F0E8"/>
<path d="M127 127V602L157 600V127Q157 74 179.0 43.0Q201 12 240 12Q242 12 242.0 6.0Q242 0 240 0Q218 0 194.5 1.0Q171 2 143 2Q113 2 84.5 1.0Q56 0 32 0Q29 0 29.0 6.0Q29 12 32 12Q76 12 101.5 43.0Q127 74 127 127ZM637 -15Q637 -18 632.5 -18.5Q628 -19 626 -18L133 543Q97 584 72.0 598.5Q47 613 22 613Q20 613 20.0 619.0Q20 625 22 625Q42 625 63.0 624.0Q84 623 102 623Q138 623 167.0 624.0Q196 625 212 625Q225 625 231.5 613.5Q238 602 262 573L629 150ZM637 497V-15L608 15V497Q608 550 586.0 581.5Q564 613 525 613Q523 613 523.0 619.0Q523 625 525 625Q547 625 570.5 623.5Q594 622 622 622Q649 622 675.0 623.5Q701 625 723 625Q725 625 725.0 619.0Q725 613 723 613Q683 613 660.0 581.5Q637 550 637 497Z" transform="translate(422.2,250.0) scale(0.05200,-0.05200)" fill="#F5F0E8"/>
<path d="M43 0 229 730H371L557 0H448L404 185H197L153 0ZM217 274H383L333 485Q320 541 311.5 582.5Q303 624 300 639Q297 624 289.0 582.5Q281 541 267 486Z" transform="translate(146.3,320.0) scale(0.01300,-0.01300)" fill="rgba(245,240,232,0.7)"/>
<path d="M304 -10Q236 -10 185.5 15.5Q135 41 107.5 89.5Q80 138 80 203V527Q80 593 107.5 641.0Q135 689 185.5 714.5Q236 740 304 740Q372 740 422.0 714.0Q472 688 499.5 640.5Q527 593 527 527H419Q419 584 389.0 614.0Q359 644 304 644Q249 644 218.5 614.0Q188 584 188 528V203Q188 147 218.5 116.5Q249 86 304 86Q359 86 389.0 116.5Q419 147 419 203H527Q527 138 499.5 90.0Q472 42 422.0 16.0Q372 -10 304 -10Z" transform="translate(169.9,320.0) scale(0.01300,-0.01300)" fill="rgba(245,240,232,0.7)"/>
<path d="M300 -10Q232 -10 182.5 15.5Q133 41 106.5 89.5Q80 138 80 203V527Q80 593 106.5 641.0Q133 689 182.5 714.5Q232 740 300 740Q368 740 417.5 714.5Q467 689 493.5 641.0Q520 593 520 528V203Q520 138 493.5 89.5Q467 41 417.5 15.5Q368 -10 300 -10ZM300 86Q355 86 383.5 116.5Q412 147 412 203V527Q412 584 383.5 614.0Q355 644 300 644Q246 644 217.0 614.0Q188 584 188 527V203Q188 147 217.0 116.5Q246 86 300 86Z" transform="translate(181.7,320.0) scale(0.01300,-0.01300)" fill="rgba(245,240,232,0.7)"/>
<path d="M81 0V730H217L430 123Q428 152 425.0 192.0Q422 232 420.5 275.0Q419 318 419 353V730H519V0H383L171 607Q173 581 175.5 542.0Q178 503 179.5 461.0Q181 419 181 383V0Z" transform="translate(193.5,320.0) scale(0.01300,-0.01300)" fill="rgba(245,240,232,0.7)"/>
<path d="M303 -10Q229 -10 176.0 14.5Q123 39 94.0 84.5Q65 130 65 193H172Q172 143 207.0 114.5Q242 86 304 86Q362 86 395.0 114.0Q428 142 428 191Q428 232 405.5 262.0Q383 292 341 303L249 330Q169 353 125.5 408.5Q82 464 82 541Q82 601 109.0 646.0Q136 691 186.0 716.0Q236 741 304 741Q404 741 464.5 687.0Q525 633 526 542H418Q418 590 387.5 617.5Q357 645 302 645Q249 645 219.0 619.5Q189 594 189 548Q189 507 211.5 477.0Q234 447 276 435L369 407Q449 385 492.0 329.0Q535 273 535 195Q535 134 506.0 87.5Q477 41 425.0 15.5Q373 -10 303 -10Z" transform="translate(205.3,320.0) scale(0.01300,-0.01300)" fill="rgba(245,240,232,0.7)"/>
<path d="M246 0V631H51V731H549V631H354V0Z" transform="translate(217.1,320.0) scale(0.01300,-0.01300)" fill="rgba(245,240,232,0.7)"/>
<path d="M98 0V96H245V634H98V730H502V634H355V96H502V0Z" transform="translate(228.9,320.0) scale(0.01300,-0.01300)" fill="rgba(245,240,232,0.7)"/>
<path d="M246 0V631H51V731H549V631H354V0Z" transform="translate(240.7,320.0) scale(0.01300,-0.01300)" fill="rgba(245,240,232,0.7)"/>
<path d="M300 -10Q195 -10 138.0 47.5Q81 105 81 204V730H189V204Q189 149 216.5 117.0Q244 85 300 85Q355 85 383.0 117.0Q411 149 411 204V730H519V204Q519 105 462.0 47.5Q405 -10 300 -10Z" transform="translate(252.5,320.0) scale(0.01300,-0.01300)" fill="rgba(245,240,232,0.7)"/>
<path d="M246 0V631H51V731H549V631H354V0Z" transform="translate(264.3,320.0) scale(0.01300,-0.01300)" fill="rgba(245,240,232,0.7)"/>
<path d="M98 0V96H245V634H98V730H502V634H355V96H502V0Z" transform="translate(276.1,320.0) scale(0.01300,-0.01300)" fill="rgba(245,240,232,0.7)"/>
<path d="M300 -10Q232 -10 182.5 15.5Q133 41 106.5 89.5Q80 138 80 203V527Q80 593 106.5 641.0Q133 689 182.5 714.5Q232 740 300 740Q368 740 417.5 714.5Q467 689 493.5 641.0Q520 593 520 528V203Q520 138 493.5 89.5Q467 41 417.5 15.5Q368 -10 300 -10ZM300 86Q355 86 383.5 116.5Q412 147 412 203V527Q412 584 383.5 614.0Q355 644 300 644Q246 644 217.0 614.0Q188 584 188 527V203Q188 147 217.0 116.5Q246 86 300 86Z" transform="translate(287.9,320.0) scale(0.01300,-0.01300)" fill="rgba(245,240,232,0.7)"/>
<path d="M81 0V730H217L430 123Q428 152 425.0 192.0Q422 232 420.5 275.0Q419 318 419 353V730H519V0H383L171 607Q173 581 175.5 542.0Q178 503 179.5 461.0Q181 419 181 383V0Z" transform="translate(299.7,320.0) scale(0.01300,-0.01300)" fill="rgba(245,240,232,0.7)"/>
<path d="M43 0 229 730H371L557 0H448L404 185H197L153 0ZM217 274H383L333 485Q320 541 311.5 582.5Q303 624 300 639Q297 624 289.0 582.5Q281 541 267 486Z" transform="translate(311.5,320.0) scale(0.01300,-0.01300)" fill="rgba(245,240,232,0.7)"/>
<path d="M109 0V730H217V99H536V0Z" transform="translate(323.3,320.0) scale(0.01300,-0.01300)" fill="rgba(245,240,232,0.7)"/>
<path d="M84 0V730H313Q382 730 433.0 703.5Q484 677 512.5 629.0Q541 581 541 516Q541 443 503.5 389.5Q466 336 402 314L551 0H428L295 300H192V0ZM192 395H313Q367 395 399.0 427.5Q431 460 431 514Q431 570 399.0 602.0Q367 634 313 634H192Z" transform="translate(346.9,320.0) scale(0.01300,-0.01300)" fill="rgba(245,240,232,0.7)"/>
<path d="M94 0V730H523V634H200V427H488V332H200V96H523V0Z" transform="translate(358.7,320.0) scale(0.01300,-0.01300)" fill="rgba(245,240,232,0.7)"/>
<path d="M304 -10Q236 -10 185.5 15.5Q135 41 107.5 89.5Q80 138 80 203V527Q80 593 107.5 641.0Q135 689 185.5 714.5Q236 740 304 740Q372 740 422.0 714.0Q472 688 499.5 640.5Q527 593 527 527H419Q419 584 389.0 614.0Q359 644 304 644Q249 644 218.5 614.0Q188 584 188 528V203Q188 147 218.5 116.5Q249 86 304 86Q359 86 389.0 116.5Q419 147 419 203H527Q527 138 499.5 90.0Q472 42 422.0 16.0Q372 -10 304 -10Z" transform="translate(370.5,320.0) scale(0.01300,-0.01300)" fill="rgba(245,240,232,0.7)"/>
<path d="M300 -10Q232 -10 182.5 15.5Q133 41 106.5 89.5Q80 138 80 203V527Q80 593 106.5 641.0Q133 689 182.5 714.5Q232 740 300 740Q368 740 417.5 714.5Q467 689 493.5 641.0Q520 593 520 528V203Q520 138 493.5 89.5Q467 41 417.5 15.5Q368 -10 300 -10ZM300 86Q355 86 383.5 116.5Q412 147 412 203V527Q412 584 383.5 614.0Q355 644 300 644Q246 644 217.0 614.0Q188 584 188 527V203Q188 147 217.0 116.5Q246 86 300 86Z" transform="translate(382.3,320.0) scale(0.01300,-0.01300)" fill="rgba(245,240,232,0.7)"/>
<path d="M84 0V730H313Q382 730 433.0 703.5Q484 677 512.5 629.0Q541 581 541 516Q541 443 503.5 389.5Q466 336 402 314L551 0H428L295 300H192V0ZM192 395H313Q367 395 399.0 427.5Q431 460 431 514Q431 570 399.0 602.0Q367 634 313 634H192Z" transform="translate(394.1,320.0) scale(0.01300,-0.01300)" fill="rgba(245,240,232,0.7)"/>
<path d="M83 0V730H287Q359 730 412.0 702.5Q465 675 494.5 625.0Q524 575 524 507V224Q524 157 494.5 106.0Q465 55 412.0 27.5Q359 0 287 0ZM191 98H287Q347 98 381.5 131.5Q416 165 416 224V507Q416 565 381.5 598.5Q347 632 287 632H191Z" transform="translate(405.9,320.0) scale(0.01300,-0.01300)" fill="rgba(245,240,232,0.7)"/>
</svg>