<svg xmlns="http://www.w3.org/2000/svg" width="560" height="420" viewBox="0 0 560 420">
<rect width="560" height="420" fill="#4a7ab5"/>
<line x1="170" y1="278" x2="390" y2="278" stroke="rgba(255,255,255,0.5)" stroke-width="1"/>
<path d="M237 0V614H46V730H554V614H363V0Z" transform="translate(207.2,190.0) scale(0.07200,-0.07200)" fill="#ffffff"/>
<path d="M72 0V730H225L428 140Q425 172 421.5 215.5Q418 259 416.0 304.5Q414 350 414 384V730H528V0H375L174 590Q176 561 179.0 520.0Q182 479 184.0 436.0Q186 393 186 357V0Z" transform="translate(258.4,190.0) scale(0.07200,-0.07200)" fill="#ffffff"/>
<path d="M77 0V730H301Q407 730 469.0 679.5Q531 629 531 542Q531 493 509.0 457.0Q487 421 449.5 401.0Q412 381 363 381V385Q416 386 457.5 365.5Q499 345 523.5 305.0Q548 265 548 208Q548 145 519.0 98.0Q490 51 437.5 25.5Q385 0 312 0ZM199 104H304Q359 104 390.5 133.5Q422 163 422 214Q422 265 390.5 296.5Q359 328 304 328H199ZM199 429H299Q349 429 377.5 455.5Q406 482 406 528Q406 574 377.5 600.0Q349 626 299 626H199Z" transform="translate(309.6,190.0) scale(0.07200,-0.07200)" fill="#ffffff"/>
<path d="M304 -10Q236 -10 185.5 15.5Q135 41 107.5 89.5Q80 138 80 203V527Q80 593 107.5 641.0Q135 689 185.5 714.5Q236 740 304 740Q372 740 422.0 714.0Q472 688 499.5 640.5Q527 593 527 527H419Q419 584 389.0 614.0Q359 644 304 644Q249 644 218.5 614.0Q188 584 188 528V203Q188 147 218.5 116.5Q249 86 304 86Q359 86 389.0 116.5Q419 147 419 203H527Q527 138 499.5 90.0Q472 42 422.0 16.0Q372 -10 304 -10Z" transform="translate(187.0,245.0) scale(0.02200,-0.02200)" fill="#ffffff"/>
<path d="M43 0 229 730H371L557 0H448L404 185H197L153 0ZM217 274H383L333 485Q320 541 311.5 582.5Q303 624 300 639Q297 624 289.0 582.5Q281 541 267 486Z" transform="translate(206.2,245.0) scale(0.02200,-0.02200)" fill="#ffffff"/>
<path d="M109 0V730H217V99H536V0Z" transform="translate(225.4,245.0) scale(0.02200,-0.02200)" fill="#ffffff"/>
<path d="M83 0V730H287Q359 730 412.0 702.5Q465 675 494.5 625.0Q524 575 524 507V224Q524 157 494.5 106.0Q465 55 412.0 27.5Q359 0 287 0ZM191 98H287Q347 98 381.5 131.5Q416 165 416 224V507Q416 565 381.5 598.5Q347 632 287 632H191Z" transform="translate(244.6,245.0) scale(0.02200,-0.02200)" fill="#ffffff"/>
<path d="M94 0V730H523V634H200V427H488V332H200V96H523V0Z" transform="translate(263.8,245.0) scale(0.02200,-0.02200)" fill="#ffffff"/>
<path d="M81 0V730H217L430 123Q428 152 425.0 192.0Q422 232 420.5 275.0Q419 318 419 353V730H519V0H383L171 607Q173 581 175.5 542.0Q178 503 179.5 461.0Q181 419 181 383V0Z" transform="translate(283.0,245.0) scale(0.02200,-0.02200)" fill="#ffffff"/>
<path d="M66 0V730H199L272 496Q283 463 291.0 432.5Q299 402 302 387Q306 402 313.5 432.5Q321 463 331 496L401 730H534V0H432V246Q432 293 434.5 350.5Q437 408 442.0 466.5Q447 525 452.0 578.5Q457 632 461 672L353 317H249L139 672Q144 633 149.0 581.5Q154 530 158.0 472.0Q162 414 165.0 355.5Q168 297 168 246V0Z" transform="translate(302.2,245.0) scale(0.02200,-0.02200)" fill="#ffffff"/>
<path d="M94 0V730H523V634H200V427H488V332H200V96H523V0Z" transform="translate(321.4,245.0) scale(0.02200,-0.02200)" fill="#ffffff"/>
<path d="M84 0V730H313Q382 730 433.0 703.5Q484 677 512.5 629.0Q541 581 541 516Q541 443 503.5 389.5Q466 336 402 314L551 0H428L295 300H192V0ZM192 395H313Q367 395 399.0 427.5Q431 460 431 514Q431 570 399.0 602.0Q367 634 313 634H192Z" transform="translate(340.6,245.0) scale(0.02200,-0.02200)" fill="#ffffff"/>
<path d="M94 0V730H523V634H200V427H488V332H200V96H523V0Z" transform="translate(359.8,245.0) scale(0.02200,-0.02200)" fill="#ffffff"/>
<path d="M84 0V730H313Q382 730 433.0 703.5Q484 677 512.5 629.0Q541 581 541 516Q541 443 503.5 389.5Q466 336 402 314L551 0H428L295 300H192V0ZM192 395H313Q367 395 399.0 427.5Q431 460 431 514Q431 570 399.0 602.0Q367 634 313 634H192Z" transform="translate(184.3,312.0) scale(0.01300,-0.01300)" fill="rgba(255,255,255,0.8)"/>
<path d="M94 0V730H523V634H200V427H488V332H200V96H523V0Z" transform="translate(195.1,312.0) scale(0.01300,-0.01300)" fill="rgba(255,255,255,0.8)"/>
<path d="M304 -10Q236 -10 185.5 15.5Q135 41 107.5 89.5Q80 138 80 203V527Q80 593 107.5 641.0Q135 689 185.5 714.5Q236 740 304 740Q372 740 422.0 714.0Q472 688 499.5 640.5Q527 593 527 527H419Q419 584 389.0 614.0Q359 644 304 644Q249 644 218.5 614.0Q188 584 188 528V203Q188 147 218.5 116.0Q249 85 304 85Q359 85 389.0 116.0Q419 147 419 203V285H283V380H527V203Q527 138 499.5 90.0Q472 42 422.0 16.0Q372 -10 304 -10Z" transform="translate(205.9,312.0) scale(0.01300,-0.01300)" fill="rgba(255,255,255,0.8)"/>
<path d="M98 0V96H245V634H98V730H502V634H355V96H502V0Z" transform="translate(216.7,312.0) scale(0.01300,-0.01300)" fill="rgba(255,255,255,0.8)"/>
<path d="M300 -10Q232 -10 182.5 15.5Q133 41 106.5 89.5Q80 138 80 203V527Q80 593 106.5 641.0Q133 689 182.5 714.5Q232 740 300 740Q368 740 417.5 714.5Q467 689 493.5 641.0Q520 593 520 528V203Q520 138 493.5 89.5Q467 41 417.5 15.5Q368 -10 300 -10ZM300 86Q355 86 383.5 116.5Q412 147 412 203V527Q412 584 383.5 614.0Q355 644 300 644Q246 644 217.0 614.0Q188 584 188 527V203Q188 147 217.0 116.5Q246 86 300 86Z" transform="translate(227.5,312.0) scale(0.01300,-0.01300)" fill="rgba(255,255,255,0.8)"/>
<path d="M81 0V730H217L430 123Q428 152 425.0 192.0Q422 232 420.5 275.0Q419 318 419 353V730H519V0H383L171 607Q173 581 175.5 542.0Q178 503 179.5 461.0Q181 419 181 383V0Z" transform="translate(238.3,312.0) scale(0.01300,-0.01300)" fill="rgba(255,255,255,0.8)"/>
<path d="M43 0 229 730H371L557 0H448L404 185H197L153 0ZM217 274H383L333 485Q320 541 311.5 582.5Q303 624 300 639Q297 624 289.0 582.5Q281 541 267 486Z" transform="translate(249.1,312.0) scale(0.01300,-0.01300)" fill="rgba(255,255,255,0.8)"/>
<path d="M109 0V730H217V99H536V0Z" transform="translate(259.9,312.0) scale(0.01300,-0.01300)" fill="rgba(255,255,255,0.8)"/>
<path d="M85 0V730H300Q404 730 463.0 680.0Q522 630 522 542Q522 492 500.5 455.5Q479 419 441.0 399.0Q403 379 352 379V389Q407 390 449.0 368.5Q491 347 515.0 305.0Q539 263 539 205Q539 143 511.5 96.5Q484 50 433.5 25.0Q383 0 314 0ZM190 93H305Q363 93 397.0 124.0Q431 155 431 210Q431 266 397.0 300.0Q363 334 305 334H190ZM190 424H299Q353 424 384.0 453.0Q415 482 415 531Q415 580 384.0 608.5Q353 637 300 637H190Z" transform="translate(281.5,312.0) scale(0.01300,-0.01300)" fill="rgba(255,255,255,0.8)"/>
<path d="M84 0V730H313Q382 730 433.0 703.5Q484 677 512.5 629.0Q541 581 541 516Q541 443 503.5 389.5Q466 336 402 314L551 0H428L295 300H192V0ZM192 395H313Q367 395 399.0 427.5Q431 460 431 514Q431 570 399.0 602.0Q367 634 313 634H192Z" transform="translate(292.3,312.0) scale(0.01300,-0.01300)" fill="rgba(255,255,255,0.8)"/>
<path d="M300 -10Q232 -10 182.5 15.5Q133 41 106.5 89.5Q80 138 80 203V527Q80 593 106.5 641.0Q133 689 182.5 714.5Q232 740 300 740Q368 740 417.5 714.5Q467 689 493.5 641.0Q520 593 520 528V203Q520 138 493.5 89.5Q467 41 417.5 15.5Q368 -10 300 -10ZM300 86Q355 86 383.5 116.5Q412 147 412 203V527Q412 584 383.5 614.0Q355 644 300 644Q246 644 217.0 614.0Q188 584 188 527V203Q188 147 217.0 116.5Q246 86 300 86Z" transform="translate(303.1,312.0) scale(0.01300,-0.01300)" fill="rgba(255,255,255,0.8)"/>
<path d="M43 0 229 730H371L557 0H448L404 185H197L153 0ZM217 274H383L333 485Q320 541 311.5 582.5Q303 624 300 639Q297 624 289.0 582.5Q281 541 267 486Z" transform="translate(313.9,312.0) scale(0.01300,-0.01300)" fill="rgba(255,255,255,0.8)"/>
<path d="M83 0V730H287Q359 730 412.0 702.5Q465 675 494.5 625.0Q524 575 524 507V224Q524 157 494.5 106.0Q465 55 412.0 27.5Q359 0 287 0ZM191 98H287Q347 98 381.5 131.5Q416 165 416 224V507Q416 565 381.5 598.5Q347 632 287 632H191Z" transform="translate(324.7,312.0) scale(0.01300,-0.01300)" fill="rgba(255,255,255,0.8)"/>
<path d="M304 -10Q236 -10 185.5 15.5Q135 41 107.5 89.5Q80 138 80 203V527Q80 593 107.5 641.0Q135 689 185.5 714.5Q236 740 304 740Q372 740 422.0 714.0Q472 688 499.5 640.5Q527 593 527 527H419Q419 584 389.0 614.0Q359 644 304 644Q249 644 218.5 614.0Q188 584 188 528V203Q188 147 218.5 116.5Q249 86 304 86Q359 86 389.0 116.5Q419 147 419 203H527Q527 138 499.5 90.0Q472 42 422.0 16.0Q372 -10 304 -10Z" transform="translate(335.5,312.0) scale(0.01300,-0.01300)" fill="rgba(255,255,255,0.8)"/>
<path d="M43 0 229 730H371L557 0H448L404 185H197L153 0ZM217 274H383L333 485Q320 541 311.5 582.5Q303 624 300 639Q297 624 289.0 582.5Q281 541 267 486Z" transform="translate(346.3,312.0) scale(0.01300,-0.01300)" fill="rgba(255,255,255,0.8)"/>
<path d="M303 -10Q229 -10 176.0 14.5Q123 39 94.0 84.5Q65 130 65 193H172Q172 143 207.0 114.5Q242 86 304 86Q362 86 395.0 114.0Q428 142 428 191Q428 232 405.5 262.0Q383 292 341 303L249 330Q169 353 125.5 408.5Q82 464 82 541Q82 601 109.0 646.0Q136 691 186.0 716.0Q236 741 304 741Q404 741 464.5 687.0Q525 633 526 542H418Q418 590 387.5 617.5Q357 645 302 645Q249 645 219.0 619.5Q189 594 189 548Q189 507 211.5 477.0Q234 447 276 435L369 407Q449 385 492.0 329.0Q535 273 535 195Q535 134 506.0 87.5Q477 41 425.0 15.5Q373 -10 303 -10Z" transform="translate(357.1,312.0) scale(0.01300,-0.01300)" fill="rgba(255,255,255,0.8)"/>
<path d="M246 0V631H51V731H549V631H354V0Z" transform="translate(367.9,312.0) scale(0.01300,-0.01300)" fill="rgba(255,255,255,0.8)"/>
</svg>